<svg width="1476" height="234" viewBox="0 0 1476 234" fill="none" xmlns="http://www.w3.org/2000/svg">
<path d="M38.405 76.8875H93.23V44.4124H38.405V0H22.5354L0 33.822V191.546C0 202.748 3.30238 211.716 9.87649 218.419C16.4506 225.153 25.3486 228.489 36.5399 228.489H94.0557V196.014H48.8319C41.8603 196.014 38.405 192.28 38.405 184.812V76.8875Z" fill="black"/>
<path d="M252.325 50.9079C239.024 43.0722 223.552 39.1544 205.878 39.1544C188.205 39.1544 171.754 43.0722 157.933 50.9079C144.143 58.7436 133.38 69.8238 125.674 84.1484C117.969 98.4729 114.116 115.215 114.116 134.376V138.845C114.116 157.761 118.03 174.381 125.858 188.706C133.685 203.03 144.571 214.08 158.484 221.946C172.396 229.782 188.694 233.699 207.346 233.699C224.011 233.699 237.679 231.098 248.381 225.864C259.083 220.63 267.706 214.172 274.31 206.458C280.884 198.745 285.93 191.399 289.415 184.42L257.707 167.984C253.732 176.462 248.075 183.931 240.736 190.389C233.398 196.847 222.512 200.092 208.08 200.092C192.669 200.092 179.796 195.286 169.461 185.706C159.126 176.126 153.744 163.24 153.224 147.048H294.583V132.478C294.583 113.808 290.853 97.5241 283.392 83.5668C275.931 69.6401 265.535 58.7436 252.233 50.8773H252.325V50.9079ZM153.652 117.572C155.64 103.646 161.174 92.7492 170.256 84.9136C179.337 77.0779 191.079 73.16 205.511 73.16C219.944 73.16 231.624 77.0779 240.584 84.9136C249.543 92.7492 254.496 103.646 255.505 117.572H153.652Z" fill="black"/>
<path d="M475.286 185.155V109.369C475.286 86.9643 468.437 69.6707 454.769 57.4581C441.101 45.2761 422.327 39.1544 398.446 39.1544C383.035 39.1544 369.856 41.6337 358.909 46.6228C347.963 51.6119 339.187 58.1314 332.613 66.212C326.008 74.2925 321.238 83.3219 318.242 93.2695L354.048 104.839C356.28 94.8917 360.897 86.7806 367.838 80.5672C374.81 74.3537 384.87 71.2317 398.048 71.2317C411.227 71.2317 421.409 74.4761 427.892 80.9345C434.344 87.4234 437.585 95.9937 437.585 106.707V118.644H381.628C368.205 118.644 356.188 120.756 345.639 124.98C335.059 129.203 326.742 135.509 320.657 143.834C314.572 152.19 311.515 162.689 311.515 175.391C311.515 188.093 314.542 198.408 320.657 207.132C326.742 215.855 334.968 222.436 345.272 226.904C355.577 231.373 367.349 233.638 380.528 233.638C393.706 233.638 403.399 231.832 411.105 228.221C418.81 224.609 424.651 220.324 428.626 215.335C432.601 210.346 435.597 205.999 437.585 202.265H443.18V203.398C443.18 211.111 445.902 217.202 451.375 221.701C456.848 226.17 463.912 228.435 472.626 228.435H497.302V196.327H485.683C478.711 196.327 475.256 192.593 475.256 185.124L475.286 185.155ZM437.615 152.282C437.615 167.708 432.876 179.86 423.427 188.675C413.979 197.521 401.534 201.928 386.123 201.928C374.932 201.928 366.095 199.449 359.643 194.46C353.161 189.471 349.95 182.768 349.95 174.289C349.95 165.811 353.069 159.414 359.276 155.067C365.484 150.721 373.709 148.548 383.891 148.548H437.615V152.282Z" fill="black"/>
<path d="M751.587 48.675C742.383 43.8084 731.804 41.3904 719.878 41.3904C704.957 41.3904 693.46 44.2676 685.387 49.9913C677.315 55.715 671.138 62.816 666.919 71.2638H660.956C656.737 62.5405 650.438 55.3783 642.121 49.777C633.773 44.1757 622.796 41.3904 609.097 41.3904C595.399 41.3904 585.461 43.8696 577.755 48.8587C570.05 53.8478 564.454 59.5716 560.969 66.0299H555.006V44.3899H517.335V228.467H555.74V118.706C555.74 104.259 559.348 93.1793 566.564 85.466C573.78 77.7528 583.351 73.8962 595.276 73.8962C606.467 73.8962 615.121 76.957 621.206 83.048C627.291 89.139 630.348 97.8011 630.348 109.004V228.498H668.753V118.737C668.753 104.29 672.361 93.2098 679.578 85.4966C686.794 77.7833 696.365 73.9267 708.29 73.9267C719.481 73.9267 728.104 76.9876 734.219 83.0786C740.304 89.1696 743.362 97.8317 743.362 109.034V228.528H781.767V106.065C781.767 91.8937 779.015 79.9872 773.572 70.4068C768.099 60.8265 760.76 53.603 751.557 48.7669V48.675H751.587Z" fill="black"/>
<path d="M1036.16 50.7243C1021.73 43.011 1005.31 39.1544 986.934 39.1544C968.557 39.1544 952.168 43.011 937.888 50.7243C923.578 58.4375 912.326 69.334 904.131 83.4137C895.936 97.4628 891.808 114.205 891.808 133.642V139.243C891.808 158.648 895.906 175.452 904.131 189.654C912.326 203.857 923.578 214.722 937.888 222.313C952.198 229.904 968.527 233.699 986.934 233.699C1005.34 233.699 1021.73 229.904 1036.16 222.313C1050.6 214.722 1061.91 203.826 1070.1 189.654C1078.3 175.483 1082.43 158.679 1082.43 139.243V133.642C1082.43 114.236 1078.33 97.4934 1070.1 83.4137C1061.88 69.334 1050.6 58.4681 1036.16 50.7243ZM1043.99 138.11C1043.99 157.271 1038.7 172.269 1028.12 183.104C1017.54 193.94 1003.81 199.357 986.904 199.357C969.994 199.357 956.632 193.94 946.052 183.104C935.473 172.269 930.213 157.271 930.213 138.11V134.744C930.213 115.583 935.503 100.585 946.052 89.7496C956.632 78.9143 970.239 73.4967 986.904 73.4967C1003.57 73.4967 1017.88 78.9143 1028.31 89.7496C1038.76 100.585 1043.96 115.583 1043.96 134.744V138.11H1043.99Z" fill="black"/>
<path d="M1234.4 53.165C1223.57 46.9515 1211.22 43.8295 1197.28 43.8295L1145.63 44.3499H1107.96V228.427H1146.36V77.376L1186.08 76.7026C1200 76.7026 1210.94 80.498 1218.89 88.0888C1226.84 95.6796 1230.82 107.433 1230.82 123.38V228.458H1269.22V120.411C1269.22 104.495 1266.11 90.8436 1259.9 79.5186C1253.69 68.1936 1245.16 59.409 1234.34 53.1956H1234.4V53.165Z" fill="black"/>
<path d="M1476 132.509C1476 113.838 1472.27 97.5545 1464.81 83.5973C1457.35 69.6706 1446.95 58.7741 1433.65 50.9078C1420.35 43.0722 1404.88 39.1543 1387.2 39.1543C1369.53 39.1543 1353.08 43.0722 1339.26 50.9078C1325.47 58.7435 1314.7 69.8237 1307 84.1483C1299.29 98.4729 1295.44 115.215 1295.44 134.376V138.845C1295.44 157.761 1299.36 174.381 1307.18 188.705C1315.01 203.03 1325.9 214.08 1339.81 221.946C1353.72 229.782 1370.02 233.699 1388.67 233.699C1405.34 233.699 1419 231.098 1429.71 225.864C1440.41 220.63 1449.03 214.171 1455.64 206.458C1462.21 198.745 1467.25 191.399 1470.74 184.42L1439.03 167.984C1435.06 176.462 1429.4 183.931 1422.06 190.389C1414.72 196.847 1403.84 200.092 1389.41 200.092C1373.99 200.092 1361.12 195.286 1350.79 185.706C1340.45 176.126 1335.07 163.24 1334.55 147.048H1475.91V132.478H1476V132.509ZM1335.01 117.572C1337 103.646 1342.53 92.7491 1351.61 84.9135C1360.69 77.0778 1372.43 73.1599 1386.87 73.1599C1401.3 73.1599 1412.98 77.0778 1421.94 84.9135C1430.9 92.7491 1435.85 103.646 1436.86 117.572H1335.01Z" fill="black"/>
</svg>
