<?xml version="1.0" encoding="UTF-8" standalone="no"?>
<svg xmlns="http://www.w3.org/2000/svg" xmlns:xlink="http://www.w3.org/1999/xlink" style="isolation:isolate" viewBox="0 0 100 100" fill="#46FFAD">
  <path d=" M 64.005 16.001 L 64.005 8 L 56.013 8 L 56.013 0 L 48.017 0 L 48.017 8 L 40.017 8 L 40.017 16.001 L 32.016 16.001 L 32.016 8 L 24.019 8 L 24.019 0 L 16.018 0 L 16.018 8 L 8.011 8 L 8.011 16.001 L 0.01 16.001 L 0.01 31.999 L 0 31.999 L 0 40 L 8.001 40 L 8.001 48 L 16.002 48 L 16.002 56 L 24.003 56 L 24.003 64.002 L 32.005 64.002 L 32.005 72 L 40.007 72 L 40.007 64.002 L 48.002 64.002 L 48.002 56 L 55.998 56 L 55.998 48 L 63.995 48 L 63.995 40 L 71.991 40 L 71.991 31.999 L 72 31.999 L 72 16.001 L 64.005 16.001 Z">
    <animate id="scalor" dur="500ms" begin="500ms;scalor.end+500ms" keyTimes="0;0.6;1" attributeName="d" values="M 64.005 16.001 L 64.005 8 L 56.013 8 L 56.013 0 L 48.017 0 L 48.017 8 L 40.017 8 L 40.017 16.001 L 32.016 16.001 L 32.016 8 L 24.019 8 L 24.019 0 L 16.018 0 L 16.018 8 L 8.011 8 L 8.011 16.001 L 0.01 16.001 L 0.01 31.999 L 0 31.999 L 0 40 L 8.001 40 L 8.001 48 L 16.002 48 L 16.002 56 L 24.003 56 L 24.003 64.002 L 32.005 64.002 L 32.005 72 L 40.007 72 L 40.007 64.002 L 48.002 64.002 L 48.002 56 L 55.998 56 L 55.998 48 L 63.995 48 L 63.995 40 L 71.991 40 L 71.991 31.999 L 72 31.999 L 72 16.001 L 64.005 16.001 Z; M 36.28 35.8 L 36.28 35.72 L 36.2 35.72 L 36.2 35.64 L 36.12 35.64 L 36.12 35.72 L 36.04 35.72 L 36.04 35.8 L 35.96 35.8 L 35.96 35.72 L 35.88 35.72 L 35.88 35.64 L 35.8 35.64 L 35.8 35.72 L 35.72 35.72 L 35.72 35.8 L 35.64 35.8 L 35.64 35.96 L 35.64 35.96 L 35.64 36.04 L 35.72 36.04 L 35.72 36.12 L 35.8 36.12 L 35.8 36.2 L 35.88 36.2 L 35.88 36.28 L 35.96 36.28 L 35.96 36.36 L 36.04 36.36 L 36.04 36.28 L 36.12 36.28 L 36.12 36.2 L 36.2 36.2 L 36.2 36.12 L 36.28 36.12 L 36.28 36.04 L 36.36 36.04 L 36.36 35.96 L 36.36 35.96 L 36.36 35.8 L 36.28 35.8 Z; M 36.28 35.8 L 36.28 35.72 L 36.2 35.72 L 36.2 35.64 L 36.12 35.64 L 36.12 35.72 L 36.04 35.72 L 36.04 35.8 L 35.96 35.8 L 35.96 35.72 L 35.88 35.72 L 35.88 35.64 L 35.8 35.64 L 35.8 35.72 L 35.72 35.72 L 35.72 35.8 L 35.64 35.8 L 35.64 35.96 L 35.64 35.96 L 35.64 36.04 L 35.72 36.04 L 35.72 36.12 L 35.8 36.12 L 35.8 36.2 L 35.88 36.2 L 35.88 36.28 L 35.96 36.28 L 35.96 36.36 L 36.04 36.36 L 36.04 36.28 L 36.12 36.28 L 36.12 36.2 L 36.2 36.2 L 36.2 36.12 L 36.28 36.12 L 36.28 36.04 L 36.36 36.04 L 36.36 35.96 L 36.36 35.96 L 36.36 35.8 L 36.28 35.8 Z"/>
  </path>
  <path d=" M 95.669 69.667 L 95.669 65.333 L 91.34 65.333 L 91.34 61 L 87.009 61 L 87.009 65.333 L 82.676 65.333 L 82.676 69.667 L 78.342 69.667 L 78.342 65.333 L 74.01 65.333 L 74.01 61 L 69.676 61 L 69.676 65.333 L 65.339 65.333 L 65.339 69.667 L 61.005 69.667 L 61.005 78.333 L 61 78.333 L 61 82.667 L 65.334 82.667 L 65.334 87 L 69.668 87 L 69.668 91.334 L 74.002 91.334 L 74.002 95.668 L 78.336 95.668 L 78.336 100 L 82.67 100 L 82.67 95.668 L 87.001 95.668 L 87.001 91.334 L 91.332 91.334 L 91.332 87 L 95.664 87 L 95.664 82.667 L 99.995 82.667 L 99.995 78.333 L 100 78.333 L 100 69.667 L 95.669 69.667 Z">
    <animate id="movor" dur="500ms" begin="500ms;movor.end+500ms" keyTimes="0;0.6;1" attributeName="d" values="M 95.669 69.667 L 95.669 65.333 L 91.34 65.333 L 91.34 61 L 87.009 61 L 87.009 65.333 L 82.676 65.333 L 82.676 69.667 L 78.342 69.667 L 78.342 65.333 L 74.01 65.333 L 74.01 61 L 69.676 61 L 69.676 65.333 L 65.339 65.333 L 65.339 69.667 L 61.005 69.667 L 61.005 78.333 L 61 78.333 L 61 82.667 L 65.334 82.667 L 65.334 87 L 69.668 87 L 69.668 91.334 L 74.002 91.334 L 74.002 95.668 L 78.336 95.668 L 78.336 100 L 82.67 100 L 82.67 95.668 L 87.001 95.668 L 87.001 91.334 L 91.332 91.334 L 91.332 87 L 95.664 87 L 95.664 82.667 L 99.995 82.667 L 99.995 78.333 L 100 78.333 L 100 69.667 L 95.669 69.667 Z;M 64.005 16.001 L 64.005 8 L 56.013 8 L 56.013 0 L 48.017 0 L 48.017 8 L 40.017 8 L 40.017 16.001 L 32.016 16.001 L 32.016 8 L 24.019 8 L 24.019 0 L 16.018 0 L 16.018 8 L 8.011 8 L 8.011 16.001 L 0.01 16.001 L 0.01 31.999 L 0 31.999 L 0 40 L 8.001 40 L 8.001 48 L 16.002 48 L 16.002 56 L 24.003 56 L 24.003 64.002 L 32.005 64.002 L 32.005 72 L 40.007 72 L 40.007 64.002 L 48.002 64.002 L 48.002 56 L 55.998 56 L 55.998 48 L 63.995 48 L 63.995 40 L 71.991 40 L 71.991 31.999 L 72 31.999 L 72 16.001 L 64.005 16.001 Z; M 64.005 16.001 L 64.005 8 L 56.013 8 L 56.013 0 L 48.017 0 L 48.017 8 L 40.017 8 L 40.017 16.001 L 32.016 16.001 L 32.016 8 L 24.019 8 L 24.019 0 L 16.018 0 L 16.018 8 L 8.011 8 L 8.011 16.001 L 0.01 16.001 L 0.01 31.999 L 0 31.999 L 0 40 L 8.001 40 L 8.001 48 L 16.002 48 L 16.002 56 L 24.003 56 L 24.003 64.002 L 32.005 64.002 L 32.005 72 L 40.007 72 L 40.007 64.002 L 48.002 64.002 L 48.002 56 L 55.998 56 L 55.998 48 L 63.995 48 L 63.995 40 L 71.991 40 L 71.991 31.999 L 72 31.999 L 72 16.001 L 64.005 16.001 Z" />
  </path>
</svg>