<svg xmlns="http://www.w3.org/2000/svg" width="24" height="24" viewBox="0 0 24 24" fill="none">
  <path d="M12 2.16C8.8 2.16 8.41333 2.16 7.14667 2.24C6.38947 2.25013 5.64 2.39467 4.93333 2.66667C4.4284 2.86853 3.97333 3.17787 3.6 3.57333C3.20707 3.94613 2.90187 4.40147 2.70667 4.90667C2.44293 5.61987 2.30307 6.37293 2.29333 7.13333V16.8267C2.29027 17.5891 2.41653 18.3464 2.66667 19.0667C2.86133 19.572 3.16667 20.0267 3.56 20.4C3.93333 20.796 4.388 21.1053 4.89333 21.3067C5.60347 21.5632 6.35173 21.6984 7.10667 21.7067C8.44 21.7733 8.76 21.7867 11.96 21.7867C15.16 21.7867 15.5467 21.7867 16.8133 21.7067C17.5731 21.7033 18.3265 21.568 19.04 21.3067C20.0833 20.9125 20.9148 20.1005 21.3333 19.0667C21.5971 18.3535 21.7369 17.6004 21.7467 16.84C21.7467 15.5067 21.8133 15.2 21.8133 11.9867C21.8133 8.77333 21.8133 8.41333 21.7467 7.14667C21.7353 6.3864 21.5956 5.6336 21.3333 4.92C20.9268 3.8892 20.1108 3.0732 19.08 2.66667C18.3651 2.41067 17.6127 2.27547 16.8533 2.26667C15.5867 2.17333 15.2 2.16 12 2.16ZM12 0C15.2667 0 15.6667 -7.45058e-08 16.9467 0.0799999C17.9439 0.0957333 18.9313 0.280533 19.8667 0.626667C21.4733 1.25547 22.7445 2.52667 23.3733 4.13333C23.7187 5.06933 23.9027 6.056 23.92 7.05333C23.92 8.38667 24 8.73333 24 12C24 15.2667 24 15.6667 23.92 16.9467C23.9043 17.9439 23.7195 18.9313 23.3733 19.8667C22.7444 21.4733 21.4733 22.7444 19.8667 23.3733C18.9313 23.7195 17.9439 23.9043 16.9467 23.92C15.6133 23.92 15.2667 24 12 24C8.73333 24 8.33333 24 7.05333 23.92C6.05627 23.9031 5.06907 23.7183 4.13333 23.3733C2.52667 22.7445 1.25547 21.4733 0.626667 19.8667C0.280533 18.9313 0.0957333 17.9439 0.0799999 16.9467C-7.45058e-08 15.6667 0 15.2667 0 12C0 8.73333 -7.45058e-08 8.33333 0.0799999 7.05333C0.0953333 6.0604 0.280267 5.07733 0.626667 4.14667C0.9104 3.34693 1.36547 2.61893 1.96 2.01333C2.56293 1.42213 3.286 0.967467 4.08 0.68C5.01747 0.341467 6.0036 0.156933 7 0.133333C8.33333 -1.29143e-07 8.73333 0 12 0ZM12 5.84C15.4021 5.83853 18.1612 8.59533 18.1627 11.9973C18.1641 15.3995 15.4073 18.1585 12.0053 18.16H12C8.59787 18.16 5.84 15.4021 5.84 12C5.84 8.59787 8.59787 5.84 12 5.84ZM12 16C14.2088 16.0403 16.032 14.2824 16.0724 12.0737C16.1127 9.86493 14.3548 8.04173 12.1461 8.00133C12.0975 8.0004 12.0488 8.0004 12.0001 8.00133C9.79133 8.0416 8.03347 9.86493 8.07387 12.0737C8.1132 14.2257 9.84813 15.9608 12 16ZM19.8533 5.58667C19.8537 6.382 19.2093 7.02693 18.414 7.02733C17.6187 7.02773 16.9737 6.38333 16.9733 5.588C16.9737 4.79267 17.6187 4.14693 18.414 4.14733C19.2088 4.14773 19.8529 4.79187 19.8533 5.58667Z" fill="black"/>
</svg>