<svg xmlns="http://www.w3.org/2000/svg" width="24" height="24" viewBox="0 0 24 24" fill="none">
  <path d="M0.4 8H5.33333V24H0.4V8ZM2.93333 0C4.53333 0 5.86667 1.33333 5.86667 2.93333C5.86667 4.53333 4.53333 5.86667 2.93333 5.86667C1.33333 5.73333 0 4.53333 0 2.93333C0 1.33333 1.33333 0 2.93333 0ZM8.53333 8H13.3333V10.1333C14.2667 8.4 16.1333 7.46667 18 7.6C23.0667 7.6 24 10.9333 24 15.2V24H19.0667V16.2667C19.0667 14.4 19.0667 12 16.5333 12C14 12 13.6 14 13.6 16.1333V24H8.53333V8Z" fill="black"/>
</svg>