<svg xmlns="http://www.w3.org/2000/svg" width="24" height="16" viewBox="0 0 24 16" fill="none">
  <path d="M2.66667 14.6667C1.93027 14.6667 1.33333 14.0697 1.33333 13.3333V2.66667C1.33333 2.49733 1.36933 2.336 1.42667 2.18667L12 9.66667L22.604 2.284C22.6439 2.40773 22.6651 2.53667 22.6667 2.66667V13.3333C22.6667 14.0697 22.0697 14.6667 21.3333 14.6667H2.66667ZM21.3333 1.33333C21.4147 1.33333 21.496 1.344 21.5733 1.35867C15.3787 5.78667 12.188 8 12 8C11.8107 8 8.67067 5.78 2.58 1.34133C2.59333 1.34133 2.604 1.34 2.616 1.33733C2.6328 1.3348 2.64973 1.33347 2.66667 1.33333H21.3333ZM0 2.66667V13.3333C0 14.8061 1.19387 16 2.66667 16H21.3333C22.8061 16 24 14.8061 24 13.3333V2.66667C24 1.19387 22.8061 0 21.3333 0H2.66667C1.19387 0 0 1.19387 0 2.66667Z" fill="black"/>
</svg>