<svg xmlns="http://www.w3.org/2000/svg" width="24" height="16" viewBox="0 0 24 16" fill="none">
  <path d="M23.76 3.45333C23.6427 2.6312 23.3116 1.85413 22.8 1.2C22.1513 0.584667 21.2941 0.236933 20.4 0.226667C17.04 9.93411e-08 12 0 12 0C12 0 6.96 9.93411e-08 3.6 0.226667C2.70213 0.2376 1.84093 0.584934 1.18667 1.2C0.677067 1.854 0.3504 2.6316 0.24 3.45333C0.0906668 4.67453 0.0105333 5.90307 0 7.13333V8.85333C0.0106667 10.088 0.0906668 11.32 0.24 12.5467C0.359733 13.3681 0.690534 14.1445 1.2 14.8C1.94787 15.4261 2.89133 15.7704 3.86667 15.7733C5.76 16 12 16 12 16C12 16 17.04 16 20.4 15.76C21.2931 15.7573 22.1515 15.414 22.8 14.8C23.3095 14.1445 23.6403 13.3681 23.76 12.5467C23.9097 11.3211 23.9899 10.088 24 8.85333V7.13333C23.9895 5.90307 23.9093 4.67453 23.76 3.45333ZM9.52 10.9467V4.56L16 7.76L9.52 10.9467Z" fill="black"/>
</svg>