<svg xmlns="http://www.w3.org/2000/svg" style="isolation:isolate" viewBox="0 0 100 6.867" width="100%">
    <path d="M88.152 1.29v1.505H100v1.283H88.152v1.505H100v1.278H86.645V.012H100V1.29H88.152Zm-4.794 1.495h-9.155V0h-1.505v6.848h1.505V4.291h9.154v2.557h1.505V0h-1.505l.001 2.785ZM58.52 1.523v3.823c-.003.402.155.789.439 1.075.283.285.669.446 1.072.446l10.911-.011V5.351H60.234c-.103-.002-.188-.082-.197-.185V1.728c.016-.123.122-.215.246-.212h10.659V.011H60.049c-.84-.003-1.524.674-1.529 1.513v-.001Zm-3.317 1.27-9.611.004c-.066.003-.13-.02-.178-.064-.047-.045-.075-.107-.076-.173V1.534c0-.066.027-.129.075-.175.047-.046.111-.07.177-.068h10.909V.012H45.313c-.83.01-1.495.69-1.487 1.521v1.026c0 .404.161.791.446 1.076.285.286.672.446 1.076.446l9.612-.003c.065-.003.128.021.176.065.047.045.075.106.076.172v1.03c0 .066-.028.128-.075.173-.048.044-.112.068-.178.064H44.033V6.86h11.171c.838.002 1.519-.676 1.521-1.514V4.315c-.003-.839-.683-1.518-1.522-1.521v-.001ZM42.084 6.825v.018h-1.515v-.27c0-.403-.16-.79-.445-1.075-.285-.286-.672-.446-1.076-.446h-8.395v1.801h-1.504V.006h11.407c.401-.001.786.158 1.07.441.284.284.444.668.444 1.069V3c.005.817-.64 1.491-1.456 1.521.898.415 1.472 1.315 1.47 2.305v-.001Zm-1.525-5.049c-.001-.142-.115-.257-.257-.259l-9.649-.004v2.032h9.677c.131-.01.231-.12.228-.251l.001-1.518ZM27.33 1.519v3.823c.002.402-.156.788-.44 1.072-.284.285-.67.444-1.072.443h-9.633c-.403.003-.791-.155-1.078-.438-.286-.284-.449-.669-.451-1.072V1.524c.004-.84.689-1.519 1.529-1.515h9.657c.827.009 1.491.683 1.488 1.51Zm-1.501.257c-.005-.143-.121-.257-.264-.259h-9.147c-.124-.002-.231.089-.246.213v3.437c.008.104.093.184.197.186h9.219c.134-.008.24-.117.243-.251l-.002-3.326Zm-12.943-.257v2.019c.001.403-.159.789-.444 1.073-.285.284-.671.443-1.074.441H1.505v1.803H0V.007h11.368c.403-.002.789.157 1.075.44.285.284.445.67.445 1.072h-.002Zm-1.508.258c-.001-.142-.115-.257-.257-.26l-9.616-.002v2.032h9.646c.132-.008.233-.12.228-.251l-.001-1.519Z" />
</svg>