<svg xmlns="http://www.w3.org/2000/svg" version="1.0" viewBox="0 0 744.09448 163.70079" width="100%">
    <path d="M653.799981 17.63789c-22.54021 0-45.62265 8.59783-57.6286 23.77956-6.6614-12.39328-18.97717-18.74481-31.60281-18.74481h-89.46377v84.89374l-39.9682-84.89374h-30.36346l-35.55315 76.45084h-15.02679c-5.03476 15.80142-17.04074 23.1599-36.01787 22.85008-21.3009-.30983-37.56705-17.04074-38.34164-38.80636-.85201-22.77262 16.80834-40.82027 38.7289-40.66537 15.02683.07747 26.49058 5.96428 34.3913 19.1321l31.68023-4.0278s-11.92851-39.96824-66.45879-39.96824c-63.98017 0-71.10629 52.98114-71.10629 52.98114h-70.56403V45.29032h78.85203V22.67264h-108.90566v115.2572l-32.91959-45.1579s30.90569-4.72492 30.90569-34.85598c0-24.16686-19.75176-35.24332-37.17975-35.24332h-89.5412v119.59487h29.97616V95.56043h34.46869l31.37041 46.70708h145.46576l-.15493-22.54026h-82.33761V92.77194h71.33862s6.58393 53.29097 70.95136 53.29097c16.57597 0 27.96226-3.7954 27.96226-3.7954h34.93345l8.90766-20.60378h59.56504l9.52731 20.60378h45.31283V95.56043h32.53226l30.36345 46.70708h35.47568l-34.77855-50.27012s7.43595-.61969 13.0904-4.10527c3.40811 33.77161 36.17276 58.17079 72.1132 58.17079 40.04567 0 72.57797-28.73681 72.57797-64.21249 0-34.93349-29.27908-64.21253-72.57797-64.21253zM97.343111 72.94275h-49.65042V45.29032h49.65042c22.23039 0 19.05464 27.65243 0 27.65243zm303.55712 26.18073 19.20953-43.68618 19.5194 43.68618h-38.72893zm151.35257-26.18073h-47.09436V45.29032h47.09436c22.07545 0 20.21649 27.65243 0 27.65243zm101.77954 49.03081c-22.30785.30982-40.51043-16.88581-40.51043-39.34859 0-22.46275 16.34361-40.51044 40.51043-40.66533 22.38532-.07747 40.51044 18.20258 40.51044 40.66533 0 22.46278-17.58293 39.03876-40.51044 39.34859" />
</svg>