<?xml version="1.0" encoding="UTF-8" standalone="no"?>
<svg
   viewBox="0 0 342.99999 109"
   version="1.1"
   id="svg54"
   sodipodi:docname="t1d-logo-text.svg"
   inkscape:export-filename="../../../../../Desktop/t1d-logo-text.svg"
   inkscape:export-xdpi="96"
   inkscape:export-ydpi="96"
   inkscape:version="1.2.1 (9c6d41e, 2022-07-14)"
   width="343"
   height="109"
   xmlns:inkscape="http://www.inkscape.org/namespaces/inkscape"
   xmlns:sodipodi="http://sodipodi.sourceforge.net/DTD/sodipodi-0.dtd"
   xmlns="http://www.w3.org/2000/svg"
   xmlns:svg="http://www.w3.org/2000/svg">
  <defs
     id="defs58" />
  <sodipodi:namedview
     id="namedview56"
     pagecolor="#ffffff"
     bordercolor="#000000"
     borderopacity="0.25"
     inkscape:showpageshadow="2"
     inkscape:pageopacity="0.0"
     inkscape:pagecheckerboard="0"
     inkscape:deskcolor="#d1d1d1"
     showgrid="false"
     inkscape:zoom="3.2822225"
     inkscape:cx="115.01353"
     inkscape:cy="54.079211"
     inkscape:window-width="1728"
     inkscape:window-height="979"
     inkscape:window-x="0"
     inkscape:window-y="38"
     inkscape:window-maximized="0"
     inkscape:current-layer="svg54" />
  <path
     d="m 29.990328,66.863562 h -1.15 c -0.53,-0.96 -1.3,-1.88 -2.3,-2.77 -1.01,-0.89 -2.29,-1.62 -3.85,-2.2 -1.56,-0.58 -3.49,-0.86 -5.8,-0.86 -2.98,0 -5.71,0.72 -8.2100005,2.16 -2.4999996,1.44 -4.4899996,3.53 -5.9799996,6.26 -1.49,2.74 -2.22999995,6 -2.22999995,9.79 v 1.08 c 0,3.84 0.75999995,7.12 2.26999995,9.83 1.51,2.71 3.52,4.79 6.0099996,6.229999 2.5000005,1.44 5.2100005,2.16 8.1400005,2.16 3.46,0 6.11,-0.62 7.96,-1.87 1.85,-1.249999 3.23,-2.639999 4.14,-4.179999 h 1.15 v 5.039999 h 7.27 V 52.073562 h -7.42 z m 0.07,13.25 c 0,3.84 -1.04,6.79 -3.13,8.86 -2.09,2.06 -4.74,3.1 -7.96,3.1 -3.22,0 -5.8,-1.03 -7.88,-3.1 -2.0900005,-2.06 -3.1300005,-5.01 -3.1300005,-8.86 v -0.65 c 0,-3.79 1.04,-6.72 3.1300005,-8.78 2.09,-2.06 4.72,-3.1 7.88,-3.1 3.16,0 5.93,1.03 7.99,3.1 2.06,2.06 3.1,4.99 3.1,8.78 z m 39.129999,-16.81 c -2.57,-1.51 -5.56,-2.27 -8.96,-2.27 -3.4,0 -6.59,0.76 -9.25,2.27 -2.66,1.51 -4.74,3.65 -6.23,6.41 -1.49,2.76 -2.23,5.99 -2.23,9.68 v 0.86 c 0,3.65 0.76,6.85 2.27,9.61 1.51,2.76 3.61,4.9 6.3,6.409999 2.69,1.51 5.83,2.27 9.43,2.27 3.21,0 5.86,-0.5 7.92,-1.51 2.06,-1.01 3.73,-2.259999 5,-3.739999 1.27,-1.49 2.24,-2.9 2.92,-4.25 l -6.12,-3.17 c -0.77,1.63 -1.86,3.07 -3.28,4.32 -1.42,1.25 -3.52,1.87 -6.3,1.87 -2.98,0 -5.46,-0.92 -7.45,-2.77 -1.99,-1.85 -3.04,-4.33 -3.13,-7.45 h 27.29 v -2.81 c 0,-3.6 -0.72,-6.74 -2.16,-9.43 -1.44,-2.69 -3.44,-4.79 -6.01,-6.3 z m -19.04,12.85 c 0.38,-2.69 1.45,-4.79 3.2,-6.3 1.75,-1.51 4.02,-2.27 6.8,-2.27 2.78,0 5.04,0.76 6.77,2.27 1.73,1.51 2.69,3.61 2.88,6.3 h -19.66 z m 46.73,15.91 h -1.16 l -9.43,-30.02 h -7.85 l 11.95,35.489999 h 11.810003 l 11.96,-35.489999 h -7.85 z m 44.600003,-28.76 c -2.57,-1.51 -5.56,-2.27 -8.96,-2.27 -3.4,0 -6.59,0.76 -9.25,2.27 -2.66,1.51 -4.74,3.65 -6.23,6.41 -1.49,2.76 -2.23,5.99 -2.23,9.68 v 0.86 c 0,3.65 0.76,6.85 2.27,9.61 1.51,2.76 3.61,4.9 6.3,6.409999 2.69,1.51 5.83,2.27 9.43,2.27 3.21,0 5.86,-0.5 7.92,-1.51 2.06,-1.01 3.73,-2.259999 5,-3.739999 1.27,-1.49 2.24,-2.9 2.92,-4.25 l -6.12,-3.17 c -0.77,1.63 -1.86,3.07 -3.28,4.32 -1.42,1.25 -3.52,1.87 -6.3,1.87 -2.98,0 -5.46,-0.92 -7.45,-2.77 -1.99,-1.85 -3.04,-4.33 -3.13,-7.45 h 27.29 v -2.81 c 0,-3.6 -0.72,-6.74 -2.16,-9.43 -1.44,-2.69 -3.44,-4.79 -6.01,-6.3 z m -19.04,12.85 c 0.38,-2.69 1.45,-4.79 3.2,-6.3 1.75,-1.51 4.02,-2.27 6.8,-2.27 2.78,0 5.04,0.76 6.77,2.27 1.73,1.51 2.69,3.61 2.88,6.3 h -19.66 z m 32.68,-24.07 h 7.42 v 45.449999 h -7.42 z m 41.04,11.18 c -2.79,-1.49 -5.95,-2.23 -9.5,-2.23 -3.55,0 -6.71,0.75 -9.47,2.23 -2.76,1.49 -4.93,3.59 -6.52,6.3 -1.59,2.71 -2.38,5.94 -2.38,9.68 v 1.08 c 0,3.74 0.79,6.98 2.38,9.72 1.58,2.74 3.75,4.84 6.52,6.299999 2.76,1.46 5.92,2.2 9.47,2.2 3.55,0 6.72,-0.73 9.5,-2.2 2.78,-1.459999 4.97,-3.559999 6.55,-6.299999 1.58,-2.74 2.38,-5.98 2.38,-9.72 v -1.08 c 0,-3.74 -0.79,-6.97 -2.38,-9.68 -1.59,-2.71 -3.77,-4.81 -6.55,-6.3 z m 1.51,16.85 c 0,3.7 -1.02,6.59 -3.06,8.68 -2.04,2.09 -4.69,3.13 -7.96,3.13 -3.27,0 -5.84,-1.04 -7.88,-3.13 -2.04,-2.09 -3.06,-4.98 -3.06,-8.68 v -0.65 c 0,-3.7 1.02,-6.59 3.06,-8.68 2.04,-2.09 4.67,-3.13 7.88,-3.13 3.21,0 5.98,1.04 7.99,3.13 2.02,2.09 3.02,4.98 3.02,8.68 v 0.65 z m 41.8,-16.92 c -2.47,-1.44 -5.2,-2.16 -8.17,-2.16 -3.46,0 -6.11,0.62 -7.96,1.87 -1.85,1.25 -3.23,2.66 -4.14,4.25 h -1.15 v -5.11 h -7.27 v 47.509998 h 7.42 V 92.713562 h 1.15 c 0.58,0.96 1.34,1.88 2.3,2.77 0.96,0.889999 2.23,1.619999 3.82,2.199999 1.58,0.58 3.53,0.86 5.83,0.86 2.98,0 5.71,-0.72 8.21,-2.16 2.5,-1.439999 4.49,-3.519999 5.98,-6.229999 1.49,-2.71 2.23,-5.99 2.23,-9.83 v -1.08 c 0,-3.84 -0.76,-7.12 -2.27,-9.83 -1.51,-2.71 -3.5,-4.79 -5.98,-6.23 z m 0.76,16.92 c 0,3.84 -1.03,6.79 -3.1,8.86 -2.06,2.06 -4.73,3.1 -7.99,3.1 -3.26,0 -5.8,-1.03 -7.88,-3.1 -2.09,-2.06 -3.13,-5.01 -3.13,-8.86 v -0.65 c 0,-3.79 1.04,-6.72 3.13,-8.78 2.09,-2.06 4.72,-3.1 7.88,-3.1 3.16,0 5.87,1.03 7.96,3.1 2.09,2.06 3.13,4.99 3.13,8.78 z m -229.240002,-35.64 h 11.1 v -6.26 h -8.73 c -1.34,0 -2.02,-0.72 -2.02,-2.16 v -20.81 h 10.58 V 8.9835621 h -10.58 V 0.4135619 H 8.2703275 L 3.9203279,6.9335621 V 37.353562 c 0,2.16 0.64,3.89 1.91,5.18 1.2699996,1.29 2.9899996,1.94 5.1500001,1.94 z m 23.55,-1.25 c 2.69,1.51 5.83,2.27 9.429999,2.27 3.21,0 5.86,-0.5 7.92,-1.51 2.06,-1.01 3.73,-2.26 5,-3.74 1.27,-1.49 2.24,-2.9 2.92,-4.25 l -6.12,-3.17 c -0.77,1.63 -1.86,3.07 -3.28,4.32 -1.42,1.25 -3.52,1.87 -6.3,1.87 -2.98,0 -5.459999,-0.92 -7.449999,-2.77 -1.99,-1.85 -3.04,-4.33 -3.13,-7.45 h 27.289999 v -2.81 c 0,-3.6 -0.72,-6.74 -2.16,-9.43 -1.44,-2.69 -3.44,-4.79 -6.01,-6.3 -2.57,-1.5099999 -5.56,-2.2699999 -8.96,-2.2699999 -3.399999,0 -6.589999,0.76 -9.249999,2.2699999 -2.66,1.51 -4.74,3.65 -6.23,6.41 -1.49,2.76 -2.23,5.99 -2.23,9.68 v 0.86 c 0,3.65 0.76,6.85 2.27,9.61 1.51,2.76 3.61,4.9 6.3,6.41 z m 2.27,-26.42 c 1.75,-1.51 4.019999,-2.27 6.799999,-2.27 2.78,0 5.04,0.76 6.77,2.27 1.73,1.51 2.69,3.61 2.88,6.3 H 33.600328 c 0.38,-2.69 1.45,-4.79 3.2,-6.3 z m 49.879999,25.16 c 0.77,-0.96 1.34,-1.8 1.73,-2.52 h 1.08 v 0.22 c 0,1.49 0.53,2.66 1.58,3.53 1.06,0.86 2.42,1.3 4.1,1.3 h 4.76 v -6.19 h -2.25 c -1.34,0 -2.02,-0.72 -2.02,-2.16 v -14.62 c 0,-4.32 -1.32,-7.66 -3.96,-10.01 -2.64,-2.3499999 -6.26,-3.5299999 -10.87,-3.5299999 -2.98,0 -5.52,0.48 -7.63,1.44 -2.11,0.9599999 -3.8,2.2199999 -5.08,3.7799999 -1.27,1.56 -2.2,3.3 -2.77,5.22 l 6.91,2.23 c 0.43,-1.92 1.32,-3.48 2.66,-4.68 1.34,-1.2 3.29,-1.8 5.83,-1.8 2.54,0 4.51,0.62 5.76,1.87 1.25,1.25 1.87,2.91 1.87,4.97 v 2.3 h -10.8 c -2.59,0 -4.91,0.41 -6.95,1.22 -2.04,0.82 -3.65,2.03 -4.82,3.64 -1.18,1.61 -1.76,3.64 -1.76,6.08 0,2.44 0.59,4.44 1.76,6.12 1.18,1.68 2.76,2.95 4.75,3.82 1.99,0.86 4.26,1.3 6.8,1.3 2.54,0 4.42,-0.35 5.9,-1.04 1.49,-0.7 2.62,-1.52 3.38,-2.48 z m -13.32,-4.03 c -1.25,-0.96 -1.87,-2.26 -1.87,-3.89 0,-1.63 0.6,-2.87 1.8,-3.71 1.2,-0.84 2.78,-1.26 4.75,-1.26 h 10.37 v 0.72 c 0,2.98 -0.91,5.32 -2.74,7.02 -1.82,1.7 -4.22,2.56 -7.2,2.56 -2.16,0 -3.86,-0.48 -5.11,-1.44 z M 149.02033,9.8135621 c -1.78,-0.94 -3.82,-1.4 -6.12,-1.4 -2.88,0 -5.1,0.55 -6.66,1.6599999 -1.56,1.1 -2.75,2.47 -3.56,4.1 h -1.15 c -0.82,-1.68 -2.03,-3.06 -3.64,-4.14 -1.61,-1.0799999 -3.73,-1.6199999 -6.37,-1.6199999 -2.64,0 -4.56,0.48 -6.05,1.44 -1.49,0.9599999 -2.57,2.0599999 -3.24,3.3099999 h -1.15 V 8.9835621 h -7.27 V 44.483562 h 7.42 v -21.17 c 0,-2.78 0.7,-4.92 2.09,-6.41 1.39,-1.49 3.24,-2.23 5.54,-2.23 2.16,0 3.83,0.59 5,1.76 1.17,1.18 1.76,2.84 1.76,5 v 23.04 h 7.42 v -21.17 c 0,-2.78 0.7,-4.92 2.09,-6.41 1.39,-1.49 3.24,-2.23 5.54,-2.23 2.16,0 3.83,0.59 5,1.76 1.18,1.18 1.76,2.84 1.76,5 v 23.04 h 7.42 v -23.62 c 0,-2.74 -0.53,-5.03 -1.58,-6.88 -1.06,-1.85 -2.47,-3.24 -4.25,-4.1799999 z m 63.86,16.3799999 c 0,-3.74 -0.79,-6.97 -2.38,-9.68 -1.59,-2.71 -3.77,-4.81 -6.55,-6.3 -2.79,-1.4899999 -5.95,-2.2299999 -9.5,-2.2299999 -3.55,0 -6.71,0.75 -9.47,2.2299999 -2.76,1.49 -4.93,3.59 -6.52,6.3 -1.59,2.71 -2.38,5.94 -2.38,9.68 v 1.08 c 0,3.74 0.79,6.98 2.38,9.72 1.58,2.74 3.75,4.84 6.52,6.3 2.76,1.46 5.92,2.2 9.47,2.2 3.55,0 6.72,-0.73 9.5,-2.2 2.78,-1.46 4.97,-3.56 6.55,-6.3 1.58,-2.74 2.38,-5.98 2.38,-9.72 z m -7.42,0.86 c 0,3.7 -1.02,6.59 -3.06,8.68 -2.04,2.09 -4.69,3.13 -7.96,3.13 -3.27,0 -5.84,-1.04 -7.88,-3.13 -2.04,-2.09 -3.06,-4.98 -3.06,-8.68 v -0.65 c 0,-3.7 1.02,-6.59 3.06,-8.68 2.04,-2.09 4.67,-3.13 7.88,-3.13 3.21,0 5.98,1.04 7.99,3.13 2.02,2.09 3.02,4.98 3.02,8.68 v 0.65 z m 36.76,-16.37 c -2.09,-1.1999999 -4.48,-1.7999999 -7.16,-1.7999999 l -9.97,0.1 h -7.27 V 44.483562 h 7.42 v -29.13 l 7.67,-0.13 c 2.69,0 4.8,0.73 6.34,2.2 1.54,1.46 2.3,3.73 2.3,6.8 v 20.26 h 7.42 v -20.84 c 0,-3.07 -0.6,-5.7 -1.8,-7.88 -1.2,-2.18 -2.84,-3.88 -4.93,-5.08 z m 38.46,-0.44 c -2.57,-1.5099999 -5.56,-2.2699999 -8.96,-2.2699999 -3.4,0 -6.59,0.76 -9.25,2.2699999 -2.66,1.51 -4.74,3.65 -6.23,6.41 -1.49,2.76 -2.23,5.99 -2.23,9.68 v 0.86 c 0,3.65 0.76,6.85 2.27,9.61 1.51,2.76 3.61,4.9 6.3,6.41 2.69,1.51 5.83,2.27 9.43,2.27 3.21,0 5.86,-0.5 7.92,-1.51 2.06,-1.01 3.73,-2.26 5,-3.74 1.27,-1.49 2.24,-2.9 2.92,-4.25 l -6.12,-3.17 c -0.77,1.63 -1.86,3.07 -3.28,4.32 -1.42,1.25 -3.52,1.87 -6.3,1.87 -2.98,0 -5.46,-0.92 -7.45,-2.77 -1.99,-1.85 -3.04,-4.33 -3.13,-7.45 h 27.29 v -2.81 c 0,-3.6 -0.72,-6.74 -2.16,-9.43 -1.44,-2.69 -3.44,-4.79 -6.01,-6.3 z m -19.04,12.85 c 0.38,-2.69 1.45,-4.79 3.2,-6.3 1.75,-1.51 4.02,-2.27 6.8,-2.27 2.78,0 5.04,0.76 6.77,2.27 1.73,1.51 2.69,3.61 2.88,6.3 h -19.66 z m 17.11,40.21 c -2.57,-1.51 -5.56,-2.27 -8.96,-2.27 -3.4,0 -6.59,0.76 -9.25,2.27 -2.66,1.51 -4.74,3.65 -6.23,6.41 -1.49,2.76 -2.23,5.99 -2.23,9.68 v 0.86 c 0,3.65 0.76,6.85 2.27,9.61 1.51,2.76 3.61,4.9 6.3,6.409999 2.69,1.51 5.83,2.27 9.43,2.27 3.21,0 5.86,-0.5 7.92,-1.51 2.06,-1.01 3.73,-2.259999 5,-3.739999 1.27,-1.49 2.24,-2.9 2.92,-4.25 l -6.12,-3.17 c -0.77,1.63 -1.86,3.07 -3.28,4.32 -1.42,1.25 -3.52,1.87 -6.3,1.87 -2.98,0 -5.46,-0.92 -7.45,-2.77 -1.99,-1.85 -3.04,-4.33 -3.13,-7.45 h 27.29 v -2.81 c 0,-3.6 -0.72,-6.74 -2.16,-9.43 -1.44,-2.69 -3.44,-4.79 -6.01,-6.3 z m -19.04,12.85 c 0.38,-2.69 1.45,-4.79 3.2,-6.3 1.75,-1.51 4.02,-2.27 6.8,-2.27 2.78,0 5.04,0.76 6.77,2.27 1.73,1.51 2.69,3.61 2.88,6.3 h -19.66 z m 81.3,5.4 c -1.22,-1.44 -2.89,-2.54 -5,-3.31 -2.11,-0.77 -4.44,-1.37 -6.98,-1.8 l -2.52,-0.43 c -1.92,-0.33 -3.45,-0.84 -4.57,-1.51 -1.13,-0.67 -1.69,-1.73 -1.69,-3.17 0,-1.34 0.58,-2.39 1.73,-3.13 1.15,-0.74 2.74,-1.12 4.75,-1.12 2.01,0 3.79,0.44 5.18,1.33 1.39,0.89 2.3,2.41 2.74,4.57 l 6.91,-1.94 c -0.77,-3.07 -2.44,-5.51 -5,-7.31 -2.57,-1.8 -5.84,-2.7 -9.83,-2.7 -3.99,0 -7.44,0.92 -9.94,2.77 -2.5,1.85 -3.74,4.45 -3.74,7.81 0,2.26 0.58,4.1 1.73,5.54 1.15,1.44 2.71,2.57 4.68,3.38 1.97,0.82 4.15,1.44 6.55,1.87 l 2.45,0.43 c 2.35,0.43 4.13,0.98 5.33,1.66 1.2,0.67 1.8,1.73 1.8,3.17 0,1.44 -0.64,2.62 -1.91,3.53 -1.27,0.91 -3.08,1.37 -5.44,1.37 -1.58,0 -3.06,-0.24 -4.43,-0.72 -1.35268,-0.46926 -2.54052,-1.3202 -3.42,-2.45 -0.91,-1.15 -1.56,-2.71 -1.94,-4.68 l -6.91,1.66 c 0.67,4.08 2.5,7.13 5.47,9.14 2.98,2.019999 6.72,3.019999 11.23,3.019999 4.51,0 8.02,-0.98 10.66,-2.949999 2.64,-1.97 3.96,-4.73 3.96,-8.28 0,-2.4 -0.61,-4.32 -1.84,-5.76 z m -46.81,-18.58 c -1.25,1.3 -1.87,3.02 -1.87,5.18 v 29.379999 h 7.42 V 69.593562 c 0,-1.44 0.7,-2.16 2.09,-2.16 h 7.32 v -6.41 h -9.7 c -2.25,0 -4.01,0.65 -5.26,1.94 z"
     id="path52"
     sodipodi:nodetypes="cccssscssscsscccccccscscsssscsscssssssssscccsssccsscccssscccccccccccccssssssssscccsssccsscccssscccccccccscsssccscssssccssssssscscccssccccccccscssssssccssscsssscsscccsscccccccsssccsscccsssccssssssssscccsscccccccscsccsssssscccsssscsccsccscccsssscscsscscccsssccccccssscsccsssssccscccsscscsssccscssscssssssscscccccccccccsccsscccssssssssscccsssccsscccsssccccssssssssscccsssccsscccsssccccscccsssscccssssccccssscccccssscccsccssccscc"
     style="fill:#ffffff" />
</svg>
