<svg xmlns="http://www.w3.org/2000/svg" width="100" height="100" viewBox="0 0 100 100" fill="none">
  <path d="M41.2969 34.9257L45.5648 42.3179M54.4352 57.6819L58.703 65.074M43.2049 44.2981L36.6661 38.8115M63.3338 61.1883L56.7951 55.7017M41.6645 46.966L33.6436 44.0466M66.3563 55.9531L58.3354 53.0337M41.1296 49.9998H32.5939M67.4061 49.9998H58.8704M41.6645 53.0337L33.6436 55.9531M66.3563 44.0466L58.3354 46.966M43.2049 55.7017L36.6661 61.1883M63.3338 38.8115L56.7951 44.2981M41.2969 65.074L45.5648 57.6819M58.703 34.9257L54.4352 42.3179M48.4597 58.7355L46.9775 67.1415M51.5403 41.2642L53.0225 32.8582M51.5403 58.7355L53.0225 67.1415M46.9775 32.8582L48.4597 41.2642M50 21.487V1.76709M50 98.2326V78.5127M33.5034 4.67589L40.248 23.2066M66.4966 95.3238L59.752 76.7932M31.6723 28.1577L18.9966 13.0514M81.0034 86.9483L68.3277 71.842M25.3071 35.7434L8.22919 25.8835M91.7708 74.1162L74.6928 64.2562M21.9203 45.0486L2.5 41.6243M97.5 58.3754L78.0797 54.951M2.5 58.3754L21.9203 54.951M78.0797 45.0486L97.5 41.6243M25.3072 64.2562L8.22921 74.1162M91.7708 25.8835L74.6929 35.7434M18.9966 86.9483L31.6723 71.8419M68.3277 28.1577L81.0034 13.0514M33.5034 95.3238L40.2481 76.7931M66.4966 4.67589L59.7519 23.2066" stroke="black" stroke-width="1.25" stroke-miterlimit="10"/>
</svg>