<svg xmlns="http://www.w3.org/2000/svg" id="v3_reconstruct_merged" viewBox="228.99 210.87 137.3 173.53">
    <defs>
        <style>
            .cls-1 {
                fill: #fff;
            }
        </style>
    </defs>
    <path class="cls-1"
        d="M347.7,228.15c-12.4-11.52-29.08-17.28-50.06-17.28s-37.66,5.76-50.06,17.28c-12.4,11.52-18.59,28.01-18.59,49.46v40.05c0,21.45,6.2,37.94,18.59,49.46,12.4,11.52,29.08,17.28,50.06,17.28s37.66-5.76,50.06-17.28c12.4-11.52,18.59-28.01,18.59-49.46v-40.05c0-21.45-6.2-37.94-18.59-49.46Zm-40.19,39.91l-13.68,20.47v2.32h13.68v60.06h-19.5v-82.86h-25.19v-16.71h69.89v16.71h-25.2Z" />
</svg>