<svg xmlns="http://www.w3.org/2000/svg" style="isolation:isolate" viewBox="0 0 70.846 100" fill="currentColor" height="100%">
    <path fillRule="evenodd" d="M16.674 0h10.742v4.492h-6.25v4.492h6.25v4.493H16.674V0Zm12.89 0h10.742v3.906h-6.25v.781h6.25v8.985H29.564V9.57h6.25v-.781h-6.25V0Zm12.891 0h10.742v3.906h-6.25v.781h6.25v8.985H42.455V9.57h6.25v-.781h-6.25V0Zm-7.062 61.255H15.576l-.795-8.869h32.303l.807-9.082H13.99l-.806-8.87h44.427l-1.602 17.952-.216 2.381-2.084 23.35-.134 1.499-18.152 5.031v.001l-.04.011-18.168-5.043-1.243-13.926h8.903l.632 7.073 9.878 2.667.008-.002 9.892-2.67 1.03-11.503H35.393ZM35.379 100 6.448 91.968 0 19.653h70.846l-6.454 72.304L35.379 100Z" />
</svg>