<svg xmlns="http://www.w3.org/2000/svg" preserveAspectRatio="xMidYMid" viewBox="0 0 256 287.64" fill="currentColor" height="100%">
    <path
        d="M152.576 32.963l59.146 34.149a25.82 25.82 0 0 1 5.818-4.604c12.267-7.052 27.912-2.865 35.037 9.402 7.052 12.267 2.865 27.912-9.402 35.037a25.7 25.7 0 0 1-6.831 2.72v68.325a25.7 25.7 0 0 1 6.758 2.702c12.34 7.125 16.527 22.771 9.402 35.037-7.052 12.267-22.771 16.454-35.037 9.402-2.442-1.404-4.564-3.151-6.341-5.147l-58.785 33.941a25.67 25.67 0 0 1 1.295 8.08c0 14.103-11.459 25.635-25.635 25.635s-25.635-11.459-25.635-25.635a25.71 25.71 0 0 1 1.037-7.253l-59.13-34.14c-1.648 1.729-3.566 3.258-5.738 4.519-12.34 7.052-27.986 2.865-35.037-9.402s-2.865-27.912 9.402-35.037a25.71 25.71 0 0 1 6.758-2.704v-68.323a25.7 25.7 0 0 1-6.831-2.72C.558 99.897-3.629 84.178 3.423 71.911s22.771-16.454 35.037-9.402a25.82 25.82 0 0 1 5.79 4.575l59.162-34.158c-.682-2.31-1.048-4.757-1.048-7.29C102.365 11.459 113.823 0 128 0s25.635 11.459 25.635 25.635c0 2.547-.37 5.007-1.059 7.328zm-6.162 10.521l59.287 34.23c-1.833 6.436-1.16 13.573 2.437 19.831 3.609 6.278 9.488 10.44 16.013 12.061v68.41a25.87 25.87 0 0 0-.992.265L145.725 44.169c.234-.224.463-.452.688-.684zm-36.123.699L32.859 178.296c-.335-.097-.671-.188-1.01-.271v-68.417c6.525-1.622 12.404-5.784 16.013-12.061 3.604-6.27 4.272-13.423 2.426-19.869l59.27-34.221c.239.247.483.49.732.728zm24.872 6.076l77.414 134.081a25.49 25.49 0 0 0-4.513 5.757 25.7 25.7 0 0 0-2.702 6.758H50.64a25.71 25.71 0 0 0-2.704-6.758c-1.258-2.166-2.782-4.08-4.506-5.725l77.429-134.107c2.266.654 4.662 1.004 7.141 1.004 2.487 0 4.89-.353 7.163-1.011zm11.795 194.478l58.902-34.008c-.177-.555-.335-1.116-.473-1.681H50.607c-.082.332-.171.663-.266.992l59.191 34.175c4.661-4.837 11.208-7.842 18.468-7.842 7.518 0 14.272 3.223 18.958 8.365z"
        fillRule="evenodd" />
</svg>