<svg xmlns="http://www.w3.org/2000/svg" style="isolation:isolate" viewBox="0 0 70.847 100" fill="currentColor" height="100%">
    <path fill-rule="evenodd" d="M6.592 0h4.507v4.453h4.123V0h4.508v13.485h-4.508V8.969h-4.123v4.516H6.592V0h-.001.001Zm19.065 4.472h-3.968V0h12.445v4.472h-3.97v9.013h-4.507V4.472ZM36.109 0h4.7L43.7 4.738 46.588 0h4.702v13.485h-4.489V6.801L43.7 11.596h-.077l-3.104-4.795v6.684h-4.41V0Zm17.424 0h4.508v9.028h6.339v4.457H53.533V0Zm-18.11 43.304H22.876l.811 9.082h32.322l-.216 2.382-2.084 23.35-.134 1.498-18.152 5.031v.001l-.041.012-18.168-5.044-1.242-13.926h8.903l.632 7.074 9.877 2.667.009-.002v-.001l9.892-2.67 1.029-11.503H15.575l-2.179-24.441-.213-2.379h22.21v-.001H57.61l-.212 2.38-.404 4.496-.178 1.994H35.423Zm35.424-23.652-6.455 72.305L35.38 100 6.448 91.968 0 19.652h70.847Z" />
</svg>