<?xml version="1.0" encoding="UTF-8"?>
<svg preserveAspectRatio="xMidYMid" viewBox="0 0 256 346" xmlns="http://www.w3.org/2000/svg" fill="currentColor" height="100%">
    <path d="m82.554 267.47s-13.198 7.675 9.393 10.273c27.369 3.122 41.357 2.675 71.517-3.034 0 0 7.929 4.972 19.004 9.278-67.612 28.977-153.02-1.678-99.914-16.517m-8.262-37.814s-14.803 10.958 7.805 13.296c29.236 3.016 52.325 3.263 92.276-4.43 0 0 5.526 5.602 14.215 8.666-81.747 23.904-172.8 1.885-114.3-17.532m69.65-64.144c16.66 19.18-4.377 36.44-4.377 36.44s42.301-21.837 22.874-49.183c-18.144-25.501-32.059-38.172 43.268-81.859 0 0-118.24 29.53-61.765 94.601m89.422 129.93s9.767 8.048-10.757 14.274c-39.027 11.823-162.43 15.393-196.71 0.471-12.323-5.361 10.786-12.801 18.056-14.362 7.581-1.644 11.914-1.338 11.914-1.338-13.705-9.654-88.583 18.957-38.034 27.151 137.85 22.356 251.29-10.067 215.54-26.196" />
    <path d="m88.901 190.48s-62.772 14.909-22.229 20.324c17.118 2.292 51.244 1.773 83.031-0.89 25.978-2.191 52.063-6.851 52.063-6.851s-9.16 3.923-15.787 8.448c-63.744 16.765-186.89 8.966-151.44-8.183 29.981-14.492 54.358-12.848 54.358-12.848m112.6 62.942c64.799-33.672 34.838-66.03 13.926-61.671-5.126 1.067-7.411 1.991-7.411 1.991s1.903-2.981 5.537-4.271c41.371-14.545 73.187 42.897-13.355 65.648 0 1e-3 1.003-0.896 1.302-1.697m-39.066-253.05s35.887 35.899-34.037 91.101c-56.071 44.281-12.786 69.53-0.023 98.377-32.73-29.53-56.749-55.526-40.635-79.72 23.651-35.516 89.174-52.735 74.695-109.76m-67.171 344.29c62.199 3.981 157.71-2.209 159.97-31.64 0 0-4.348 11.157-51.404 20.017-53.088 9.991-118.56 8.824-157.4 2.421 1e-3 -1e-3 7.95 6.58 48.829 9.201" />
</svg>