<svg xmlns="http://www.w3.org/2000/svg" style="isolation:isolate" viewBox="0 0 103.03 100" fill="currentColor" height="100%">
    <path fillRule="evenodd" d="m54.649 54.288-3.118 1.488-3.119-1.488-.779-3.332 2.126-2.693h3.473l2.126 2.693-.709 3.332Zm18.498-7.371c.549 2.344.717 4.761.496 7.158l-10.844-3.119c-.992-.283-1.559-1.275-1.346-2.267.07-.284.212-.567.425-.78l8.575-7.725c1.205 1.984 2.127 4.252 2.694 6.732v.001Zm-6.095-10.985-9.285 6.591c-.779.496-1.842.354-2.48-.425-.213-.213-.284-.496-.355-.78l-.637-11.552c4.826.556 9.323 2.729 12.757 6.166ZM46.499 30.12l2.267-.425-.637 11.34c-.071.992-.851 1.842-1.914 1.842-.283 0-.637-.071-.85-.212l-9.426-6.733c2.906-2.906 6.52-4.89 10.56-5.811v-.001ZM32.537 40.184l8.433 7.513c.78.637.851 1.842.213 2.622-.213.283-.496.496-.851.567l-10.985 3.189c-.425-4.82.638-9.71 3.189-13.891h.001Zm-1.914 19.207 11.269-1.914c.921-.071 1.772.567 1.985 1.488.071.426.071.78-.071 1.134l-4.323 10.419c-3.969-2.552-7.158-6.45-8.859-11.127h-.001Zm25.869 14.103c-1.631.354-3.26.567-4.961.567-2.481 0-4.89-.425-7.158-1.134l5.599-10.135c.567-.638 1.488-.921 2.268-.496.354.212.637.496.85.78l5.457 9.851c-.638.212-1.346.354-2.055.567Zm13.819-9.851c-1.771 2.835-4.11 5.103-6.803 6.875l-4.465-10.702c-.212-.85.142-1.772.992-2.197.284-.141.638-.212.992-.212l11.34 1.913c-.425 1.56-1.134 2.977-2.056 4.323Zm17.152-5.883c-.071 0-.071 0 0 0h-.071c-.071 0-.142 0-.142-.07-.141 0-.283-.071-.425-.071l-1.346-.142c-.213 0-.426 0-.709-.071h-.071c-1.488-.141-2.693-.283-3.827-.637-.496-.213-.638-.496-.78-.78 0-.071-.071-.071-.071-.142l-.921-.283c.435-3.334.267-6.719-.496-9.993-.78-3.331-2.126-6.45-3.969-9.284l.709-.638v-.142c0-.354.071-.709.354-1.063.851-.779 1.914-1.417 3.19-2.197.212-.141.425-.212.637-.354.425-.212.78-.425 1.205-.709.071-.071.213-.142.355-.284.07-.07.141-.07.141-.141.992-.851 1.205-2.268.496-3.189-.354-.496-.992-.78-1.63-.78-.567 0-1.063.212-1.559.567l-.142.141c-.141.071-.212.213-.354.284-.355.355-.638.638-.922.992-.141.142-.283.355-.496.496-.992 1.063-1.913 1.914-2.834 2.552-.213.141-.426.212-.638.212-.142 0-.284 0-.425-.071h-.142l-.85.567c-.922-.992-1.914-1.842-2.906-2.693-4.272-3.339-9.414-5.381-14.813-5.882l-.07-.921-.142-.142c-.212-.212-.496-.425-.567-.921-.071-1.134.071-2.41.213-3.827v-.071c0-.213.07-.496.141-.709l.213-1.347v-.637c0-1.276-.993-2.339-2.197-2.339-.567 0-1.135.284-1.56.709-.425.425-.638.992-.638 1.63v.567c0 .496.071.921.213 1.346.071.213.071.426.142.709v.071c.141 1.417.354 2.693.212 3.827-.071.496-.355.709-.567.922l-.142.141-.07.922c-1.276.141-2.552.283-3.828.566-5.457 1.205-10.276 3.969-14.032 7.938l-.709-.496h-.142c-.141 0-.283.071-.425.071-.212 0-.425-.071-.638-.213-.921-.637-1.842-1.559-2.834-2.622-.142-.142-.284-.354-.496-.496-.284-.354-.567-.638-.922-.992-.07-.071-.212-.142-.354-.284-.071-.071-.142-.071-.142-.141-.439-.363-.99-.563-1.559-.567-.638 0-1.276.283-1.63.78-.709.921-.496 2.338.496 3.189.071 0 .071.07.141.07.142.071.213.213.355.284.425.284.78.496 1.205.709.212.071.425.212.637.354 1.276.78 2.339 1.418 3.19 2.197.354.355.354.709.354 1.063v.142l.709.638c-.142.212-.284.354-.355.566-3.543 5.599-4.89 12.191-3.968 18.711l-.922.283c0 .071-.07.071-.07.142-.163.342-.438.617-.78.78-1.063.354-2.339.496-3.827.637h-.071c-.213 0-.496 0-.709.071-.425 0-.851.071-1.347.142-.141 0-.283.071-.425.071-.071 0-.141 0-.212.07-1.276.284-2.056 1.489-1.843 2.623.213.992 1.134 1.63 2.268 1.63.212 0 .354 0 .567-.071.071 0 .141 0 .141-.071.142 0 .284-.071.426-.071.441-.122.868-.288 1.275-.496.213-.07.426-.212.638-.283h.071c1.346-.496 2.551-.922 3.685-1.063h.142c.425 0 .709.212.921.354.071 0 .071.071.142.071l.992-.141c1.712 5.26 4.942 9.895 9.284 13.323.992.78 1.984 1.418 3.047 2.056l-.425.921c0 .071.071.071.071.142.142.283.284.637.142 1.134-.426 1.063-1.063 2.126-1.843 3.331v.071c-.142.212-.284.354-.425.567-.284.354-.496.708-.78 1.134-.071.071-.142.212-.212.354 0 .071-.071.142-.071.142-.567 1.205-.142 2.551.921 3.047.284.142.567.213.851.213.85 0 1.701-.567 2.126-1.347 0-.071.071-.141.071-.141.07-.142.141-.284.212-.355.212-.496.284-.85.425-1.276l.213-.637c.496-1.418.85-2.552 1.488-3.544.283-.425.637-.496.921-.638.071 0 .071 0 .142-.07l.496-.922c3.166 1.217 6.53 1.842 9.922 1.843 2.055 0 4.182-.212 6.166-.709 1.249-.279 2.479-.634 3.685-1.063l.425.78c.071 0 .071 0 .142.071.354.07.638.212.921.637.567.992.992 2.197 1.488 3.544v.071l.213.637c.141.426.212.851.425 1.276.071.142.142.212.212.355 0 .07.071.141.071.141.425.851 1.276 1.347 2.126 1.347.284 0 .567-.071.851-.213.496-.283.921-.709 1.063-1.275.141-.567.141-1.205-.142-1.772 0-.071-.071-.071-.071-.142-.07-.141-.141-.283-.212-.354-.212-.426-.496-.78-.78-1.134-.141-.213-.283-.355-.425-.567v-.071c-.78-1.205-1.488-2.268-1.843-3.331-.141-.496 0-.78.071-1.134 0-.071.071-.071.071-.142l-.354-.85c3.756-2.198 6.945-5.316 9.355-9.143 1.275-1.985 2.267-4.182 2.976-6.379l.851.142c.071 0 .071-.071.141-.071.284-.142.496-.354.922-.354h.141c1.134.141 2.339.566 3.685 1.063h.071c.213.07.426.212.638.283.407.208.835.374 1.276.496.141 0 .283.071.425.071.071 0 .142 0 .212.071.213.071.355.071.567.071 1.063 0 1.985-.709 2.268-1.631 0-.85-.78-1.984-2.055-2.338l.004-.001ZM51.531 0c.992 0 1.984.212 2.906.638l35.861 17.08c1.843.921 3.26 2.622 3.685 4.606l8.859 38.484c.496 2.055 0 4.182-1.346 5.811l-24.805 30.83c-1.276 1.63-3.26 2.551-5.316 2.551H31.616c-2.056 0-4.04-.921-5.315-2.551L1.496 66.619C.22 64.989-.276 62.863.149 60.808l8.859-38.484c.496-2.055 1.843-3.756 3.685-4.606L48.554.567C49.476.212 50.539 0 51.531 0Z" />
</svg>