<svg xmlns="http://www.w3.org/2000/svg" xmlns:xlink="http://www.w3.org/1999/xlink" preserveAspectRatio="xMidYMid"
    viewBox="0.23 0 511.31 313.09" fill="currentColor" height="100%">
    <defs>
        <path id="A"
            d="M57.903 1.849c-1.849-1.04-4.045-1.04-5.894 0L3.352 29.934C1.502 30.974.462 32.939.462 35.019v56.285c0 2.08 1.156 4.045 2.889 5.085l48.657 28.085c1.849 1.04 4.045 1.04 5.894 0l48.657-28.085c1.849-1.04 2.889-3.005 2.889-5.085V35.019c0-2.08-1.156-4.045-2.889-5.085L57.903 1.849h0z" />
        <path id="B"
            d="M106.792 96.39l-48.773 28.085c-.693.347-1.387.578-2.196.693l.925 1.734 54.089-31.321v-.693l-1.387-2.312c-.231 1.618-1.271 3.005-2.658 3.814h0z" />
    </defs>
    <path
        d="M253.111 313.094c-1.734 0-3.352-.462-4.854-1.271l-15.372-9.13c-2.312-1.271-1.156-1.734-.462-1.965 3.121-1.04 3.698-1.271 6.935-3.121.347-.231.809-.116 1.156.116l11.789 7.05c.462.231 1.04.231 1.387 0l46.115-26.698c.462-.231.693-.693.693-1.271v-53.28c0-.578-.231-1.04-.693-1.271l-46.115-26.582c-.462-.231-1.04-.231-1.387 0l-46.115 26.582c-.462.231-.693.809-.693 1.271v53.28c0 .462.231 1.04.693 1.271l12.598 7.281c6.819 3.467 11.095-.578 11.095-4.623v-52.587c0-.693.578-1.387 1.387-1.387h5.894c.693 0 1.387.578 1.387 1.387v52.587c0 9.13-4.97 14.447-13.638 14.447-2.658 0-4.739 0-10.633-2.889l-12.135-6.935c-3.005-1.734-4.854-4.97-4.854-8.437v-53.28c0-3.467 1.849-6.703 4.854-8.437l46.115-26.698c2.889-1.618 6.819-1.618 9.708 0l46.115 26.698c3.005 1.734 4.854 4.97 4.854 8.437v53.28c0 3.467-1.849 6.703-4.854 8.437l-46.115 26.698c-1.502.693-3.236 1.04-4.854 1.04zm14.216-36.637c-20.226 0-24.386-9.246-24.386-17.105 0-.693.578-1.387 1.387-1.387h6.01c.693 0 1.271.462 1.271 1.156.925 6.126 3.583 9.13 15.834 9.13 9.708 0 13.869-2.196 13.869-7.397 0-3.005-1.156-5.201-16.296-6.703-12.598-1.271-20.457-4.045-20.457-14.1 0-9.362 7.859-14.909 21.035-14.909 14.794 0 22.075 5.085 23 16.181 0 .347-.116.693-.347 1.04-.231.231-.578.462-.925.462h-6.01c-.578 0-1.156-.462-1.271-1.04-1.387-6.357-4.97-8.437-14.447-8.437-10.633 0-11.904 3.698-11.904 6.472 0 3.352 1.502 4.392 15.834 6.241 14.216 1.849 20.919 4.507 20.919 14.447-.116 10.171-8.437 15.949-23.115 15.949zM110.028 104.712c0-2.08-1.156-4.045-3.005-5.085l-49.004-28.2c-.809-.462-1.734-.693-2.658-.809h-.462c-.925 0-1.849.347-2.658.809l-49.004 28.2c-1.849 1.04-3.005 3.005-3.005 5.085l.116 75.818c0 1.04.578 2.08 1.502 2.543.925.578 2.08.578 2.889 0l29.125-16.643c1.849-1.04 3.005-3.005 3.005-5.085v-35.482c0-2.08 1.156-4.045 3.005-5.085l12.367-7.166c.925-.578 1.965-.809 3.005-.809s2.08.231 2.889.809l12.367 7.166c1.849 1.04 3.005 3.005 3.005 5.085v35.482c0 2.08 1.156 4.045 3.005 5.085l29.125 16.643a2.82 2.82 0 0 0 3.005 0c.925-.462 1.502-1.502 1.502-2.543l-.116-75.818h0zM345.571.347c-.925-.462-2.08-.462-2.889 0-.925.578-1.502 1.502-1.502 2.543v75.124c0 .693-.347 1.387-1.04 1.849a2.21 2.21 0 0 1-2.08 0l-12.251-7.05c-1.849-1.04-4.045-1.04-5.894 0l-49.004 28.316c-1.849 1.04-3.005 3.005-3.005 5.085v56.516c0 2.08 1.156 4.045 3.005 5.085l49.004 28.316c1.849 1.04 4.045 1.04 5.894 0l49.004-28.316c1.849-1.04 3.005-3.005 3.005-5.085V21.844c0-2.196-1.156-4.161-3.005-5.201L345.571.347h0zm-4.507 143.776c0 .578-.231 1.04-.693 1.271l-16.758 9.708c-.462.231-1.04.231-1.502 0l-16.758-9.708c-.462-.231-.693-.809-.693-1.271v-19.417c0-.578.231-1.04.693-1.271l16.758-9.708c.462-.231 1.04-.231 1.502 0l16.758 9.708c.462.231.693.809.693 1.271v19.417h0zm167.584-19.879c1.849-1.04 2.889-3.005 2.889-5.085v-13.753c0-2.08-1.156-4.045-2.889-5.085l-48.657-28.2c-1.849-1.04-4.045-1.04-5.894 0l-49.004 28.316c-1.849 1.04-3.005 3.005-3.005 5.085v56.516c0 2.08 1.156 4.045 3.005 5.085l48.657 27.738c1.849 1.04 4.045 1.04 5.779 0L489 178.449c.925-.462 1.502-1.502 1.502-2.543s-.578-2.08-1.502-2.543l-49.235-28.316c-.925-.578-1.502-1.502-1.502-2.543v-17.683c0-1.04.578-2.08 1.502-2.543l15.372-8.784a2.82 2.82 0 0 1 3.005 0l15.372 8.784c.925.578 1.502 1.502 1.502 2.543v13.869c0 1.04.578 2.08 1.502 2.543a2.82 2.82 0 0 0 3.005 0l29.125-16.99h0zm-52.356-2.659a1.05 1.05 0 0 1 1.156 0l9.362 5.432c.347.231.578.578.578 1.04v10.864c0 .462-.231.809-.578 1.04l-9.362 5.432a1.05 1.05 0 0 1-1.156 0l-9.362-5.432c-.347-.231-.578-.578-.578-1.04v-10.864c0-.462.231-.809.578-1.04l9.362-5.432h0z" />
    <g transform="translate(134.068 70.501)">
        <mask id="C" fill="#transparent">
            <use xlink:href="#A" />
        </mask>
        <use xlink:href="#A" />
        <g mask="url(#C)">
            <path
                d="M51.893 1.849L3.121 29.934C1.271 30.974 0 32.939 0 35.019v56.285c0 1.387.578 2.658 1.502 3.698L56.285 1.156c-1.387-.231-3.005-.116-4.392.693h0zm4.739 123.204c.462-.116.925-.347 1.387-.578l48.773-28.085c1.849-1.04 3.005-3.005 3.005-5.085V35.019c0-1.502-.693-3.005-1.734-4.045l-51.431 94.079h0z" />
            <path
                d="M106.676 29.934L57.788 1.849c-.462-.231-1.04-.462-1.502-.578L1.502 95.119c.462.578 1.04 1.04 1.618 1.387l48.888 28.085c1.387.809 3.005 1.04 4.507.578l51.431-94.079c-.347-.462-.809-.809-1.271-1.156h0z" />
        </g>
        <g mask="url(#C)">
            <path
                d="M109.797 91.305V35.019c0-2.08-1.271-4.045-3.121-5.085L57.788 1.849c-.578-.347-1.156-.578-1.849-.693l53.512 91.42c.231-.347.347-.809.347-1.271h0zM3.121 29.934C1.271 30.974 0 32.939 0 35.019v56.285c0 2.08 1.387 4.045 3.121 5.085l48.888 28.085c1.156.693 2.427.925 3.814.693L3.467 29.819l-.347.116h0z" />
            <g fillRule="evenodd">
                <path
                    d="M50.391-8.437l-.693.347h.925l-.231-.347zM106.792 96.39c1.387-.809 2.427-2.196 2.889-3.698L56.054 1.156c-1.387-.231-2.889-.116-4.161.693L3.352 29.819l52.356 95.465c.693-.116 1.502-.347 2.196-.693l48.888-28.2h0zm4.507-.924l-.347-.578v.809l.347-.231z" />
                <use xlink:href="#B" />
                <use xlink:href="#B" />
            </g>
        </g>
    </g>
</svg>