<svg xmlns="http://www.w3.org/2000/svg" preserveAspectRatio="xMidYMid" viewBox="0 0 256 243.03" fill="currentColor" height="100%">
    <path
        d="M177.381 169.733c9.447-.977 16.614-9.122 16.289-18.895s-8.47-17.592-18.243-17.592h-.652c-10.099.326-17.917 8.796-17.592 18.895.326 4.887 2.28 9.122 5.212 12.054-11.076 21.827-28.016 37.791-53.426 51.148-17.266 9.122-35.183 12.38-53.101 10.099-14.66-1.955-26.062-8.47-33.229-19.221-10.425-15.963-11.402-33.23-2.606-50.496 6.19-12.38 15.963-21.502 22.152-26.063-1.303-4.235-3.258-11.402-4.235-16.615-47.237 34.207-42.35 80.468-28.016 102.296 10.75 16.289 32.577 26.388 56.684 26.388 6.515 0 13.031-.652 19.546-2.28 41.699-8.145 73.298-32.904 91.216-69.717zm57.336-40.397c-24.759-28.995-61.245-44.958-102.944-44.958h-5.212c-2.932-5.864-9.122-9.773-15.963-9.773h-.652C99.848 74.93 92.029 83.4 92.355 93.5c.326 9.773 8.47 17.592 18.243 17.592h.652c7.167-.326 13.357-4.887 15.963-11.077h5.864c24.759 0 48.214 7.167 69.389 21.176 16.289 10.751 28.016 24.759 34.532 41.7 5.538 13.683 5.212 27.04-.652 38.442-9.122 17.266-24.433 26.714-44.631 26.714-13.031 0-25.41-3.909-31.926-6.841-3.583 3.258-10.099 8.47-14.66 11.728 14.008 6.516 28.342 10.099 42.024 10.099 31.274 0 54.404-17.266 63.2-34.533 9.447-18.895 8.796-51.474-15.637-79.165zM69.225 175.271c.326 9.773 8.47 17.592 18.243 17.592h.652c10.099-.326 17.917-8.796 17.592-18.895-.326-9.773-8.47-17.592-18.243-17.592h-.652c-.652 0-1.629 0-2.28.326-13.357-22.153-18.895-46.261-16.94-72.324 1.303-19.547 7.818-36.488 19.22-50.496 9.447-12.054 27.691-17.918 40.07-18.244 34.532-.652 49.191 42.352 50.169 59.618 4.235.977 11.402 3.258 16.289 4.887C189.434 27.366 156.857 0 125.583 0 96.264 0 69.225 21.176 58.475 52.451c-14.985 41.7-5.212 81.771 13.031 113.372-1.629 2.28-2.606 5.864-2.28 9.448z" />
</svg>