<svg xmlns="http://www.w3.org/2000/svg" style="isolation:isolate" viewBox="0 0 100 100" fill="currentColor" height="100%">
    <path fillRule="evenodd" d="M80.691 46.137c2.54.635 4.477 1.762 6.254 3.603.921.984 2.286 2.778 2.397 3.206.032.127-4.317 3.048-6.952 4.683-.095.063-.476-.35-.905-.984-1.286-1.873-2.635-2.683-4.698-2.826-3.032-.206-4.984 1.381-4.969 4.032 0 .778.111 1.238.429 1.873.666 1.381 1.905 2.206 5.794 3.889 7.158 3.079 10.222 5.111 12.126 8 2.128 3.222 2.604 8.365 1.159 12.19-1.587 4.159-5.524 6.984-11.063 7.921-1.715.302-5.778.254-7.62-.079-4.016-.715-7.825-2.699-10.174-5.302-.921-1.016-2.715-3.667-2.603-3.857.047-.064.46-.318.92-.587.445-.254 2.127-1.223 3.715-2.143l2.873-1.667.603.889c.841 1.286 2.682 3.048 3.793 3.635 3.191 1.682 7.572 1.444 9.73-.492.921-.841 1.302-1.714 1.302-3 0-1.159-.143-1.667-.746-2.54-.778-1.111-2.365-2.047-6.873-4-5.159-2.222-7.381-3.603-9.413-5.794-1.175-1.269-2.286-3.301-2.746-5-.381-1.412-.476-4.952-.175-6.38 1.064-4.984 4.826-8.461 10.254-9.493 1.762-.333 5.857-.206 7.587.223h.001ZM0 50v50h100V0H0v50Zm22.109.328-.031 4.095h13.015v36.985H44.3V54.423h13.015v-4.016c0-2.222-.047-4.079-.111-4.127-.048-.063-7.968-.095-17.571-.079l-17.477.048-.047 4.079Z" />
</svg>