<svg xmlns="http://www.w3.org/2000/svg" width="16" height="27" viewBox="0 0 16 27" fill="none">
  <path d="M13.3333 0C14.8061 0 16 1.19387 16 2.66667V24C16 25.4728 14.8061 26.6667 13.3333 26.6667H2.66667C1.19387 26.6667 0 25.4728 0 24V2.66667C0 1.19387 1.19387 0 2.66667 0H13.3333ZM13.3333 1.33333H2.66667C1.93027 1.33333 1.33333 1.93027 1.33333 2.66667V24C1.33333 24.7364 1.93027 25.3333 2.66667 25.3333H13.3333C14.0697 25.3333 14.6667 24.7364 14.6667 24V2.66667C14.6667 1.93027 14.0697 1.33333 13.3333 1.33333ZM8 22.6667C8.55227 22.6667 9 23.1144 9 23.6667C9 24.2189 8.55227 24.6667 8 24.6667C7.44773 24.6667 7 24.2189 7 23.6667C7 23.1144 7.44773 22.6667 8 22.6667Z" fill="black"/>
</svg>