<svg version="1.2" xmlns="http://www.w3.org/2000/svg" viewBox="0 0 1543 296" width="1543" height="296">
	<title>Schwarz_Gruppenlogo_Primärform_RGB_01-svg</title>
	<style>
		.s0 { fill: #ffffff } 
	</style>
	<path id="Layer" fill-rule="evenodd" class="s0" d="m0 261.6h1542.1v33.8h-1542.1zm691-42.5l-57.9-213.3h64.5l25.9 131.9h0.7l25.6-131.9h57.8l25.2 133.6h0.5l26.6-133.6h64.7l-59.6 213.3h-63.9l-22.9-129.8h-0.6l-22.4 129.8zm201.4 0l78.4-213.3h64.2l77.5 213.3h-68l-8.9-30.5h-67.7l-9.6 30.5zm89.9-76.1h40.3l-19.2-65.7h-0.5zm214.7 76.3h-65.6v-213.3h125c37.4 0 69.6 20.6 69.6 60.9 0 22.1-10.3 45.4-32 53.5 17.8 6.8 28.9 26.5 31.3 53.1 0.9 10.5 1.2 35.8 7.2 45.8h-65.6c-3.4-10.8-4.6-21.8-5.4-32.9-1.8-20.3-3.5-41.5-29.5-41.5h-35zm0-120.1h34.4c12.2 0 29-2.2 29-21.2 0-13.5-7.5-21.3-32.6-21.3h-30.8zm345.1 65.4v54.6h-190.3v-51.3l99-107.3h-93.4v-54.7h179.9v47.8l-100 110.9zm-1415.7-7c0-11.1-9.2-14-45.9-24.5-33.7-9.6-72.2-18.8-72.2-61.9 0-49.2 42.1-70.4 85.9-70.4 46.3 0 87.2 17.6 88.9 69.6h-62c1.2-8.1-2.4-13.4-7.7-17-5.3-3.8-12.9-5.4-19.4-5.4-9 0-23.6 2.4-23.6 14.4 1.2 15.3 31.7 18.5 61.8 26.8 30.1 8.4 60 22.5 60 61.6 0 55.6-51.1 73.5-98.5 73.5-24.2 0-93.1-8.7-93.7-76.8h65.6c0 5.4 0.9 10.1 2.4 14 4.8 12.9 19.2 15.6 31.4 15.6 10.7 0 27.2-3.6 27-19.5zm364.2 61.6h-65.6v-213.3h65.6v74.2h61.5v-74.2h65.7v213.3h-65.7v-84.6h-61.5zm-288.6-106.4c0-67.2 42.4-111.7 108-111.7 58.5 0.3 90.7 31 96.4 84.5h-63.9c-1.2-7.7-7-31.4-34.2-31.4-30.7 0-40.6 29.9-40.6 58.5 0 28.7 9.9 58.5 40.6 58.5 22 0 30.6-15.5 34.6-35.5h64.4c0 42.9-35 88.7-97.3 88.7-68.9 0-108-48.7-108-111.6z"/>
</svg>