<svg width="36" height="36" viewBox="0 0 36 36" fill="none" xmlns="http://www.w3.org/2000/svg">
<path fill-rule="evenodd" clip-rule="evenodd" d="M11.5 8V10H13.5V12H11.5H9.5V14H11.5H13.5H14.5V16H12.5V18H10.5V16H8.5H6.5V18H4.5V20H2.5V22V24H4.5V26H6.5V28H8.5H10.5V26H12.5V24H14.5V22H16.5H17.5V20H19.5V18H21.5V20V22V24H23.5V26H25.5V28H27.5H29.5V26H31.5V24H33.5V22V20H31.5V18H29.5V16H27.5H25.5V18H23.5H21.5V16H23.5V14H25.5H27.5V11H29.5V13H31.5V9H29.5H27.5V11H25.5V12H23.5H21.5H19.5H17.5H15.5V10L17.5 10V8H11.5ZM25.5 18H27.5H29.5V20H31.5V22V24H29.5V26H27.5H25.5V24H23.5V22V20H25.5V18ZM21.5 16H19.5V18H17.5V20H16.5H14.5H12.5V18H14.5V16H16.5V14H17.5H19.5H21.5V16ZM12.5 24V22H10.5H8.5V23H6.5V21H8.5V20H10.5V18H8.5H6.5V20H4.5V22V24H6.5V26H8.5H10.5V24H12.5ZM26.5 21H28.5V23H26.5V21Z" fill="#46FFAD"/>
</svg>
