<svg width="36" height="36" viewBox="0 0 36 36" fill="none" xmlns="http://www.w3.org/2000/svg">
<path fill-rule="evenodd" clip-rule="evenodd" d="M19 8H17V9H15V10H13V11H11V12H9V13H7V14H5V16H7V17H9V24H10V26H12V27H14V28H16H18H20H22V27H24V26H26V24H27V16H29V25H31V14H29V13H27V12H25V11H23V10H21V9H19V8ZM27 16H25V17H23V18H21V19H19V20H17V19H15V18H13V17H11V16H9V15V14H11V13H13V12H15V11H17V10H19V11H21V12H23V13H25V14H27V15V16ZM12 24H11V19H13V20H15V21H17V22H19V21H21V20H23V19H25V24H24V25H22V26H20H18H16H14V25H12V24Z" fill="#46FFAD"/>
</svg>
