<svg width="28" height="28" viewBox="0 0 28 28" fill="none" xmlns="http://www.w3.org/2000/svg">
<g clip-path="url(#clip0_1107_1676)">
<path d="M24.9262 14.4631C24.9262 8.68448 20.2417 4 14.4631 4C8.68448 4 4 8.68448 4 14.4631C4 19.6854 7.82618 24.0141 12.8282 24.799V17.4876H10.1716V14.4631H12.8282V12.1579C12.8282 9.53562 14.3903 8.08714 16.7803 8.08714C17.9247 8.08714 19.1224 8.2915 19.1224 8.2915V10.8664H17.8031C16.5034 10.8664 16.0979 11.673 16.0979 12.5013V14.4631H18.9998L18.5359 17.4876H16.0979V24.799C21.1 24.0141 24.9262 19.6854 24.9262 14.4631Z" fill="#46FFAD"/>
</g>
<defs>
<clipPath id="clip0_1107_1676">
<rect width="20.9262" height="20.9262" fill="white" transform="translate(4 4)"/>
</clipPath>
</defs>
</svg>
