<svg width="36" height="36" viewBox="0 0 36 36" fill="none" xmlns="http://www.w3.org/2000/svg">
<path fillRule="evenodd" clipRule="evenodd" d="M6 9H8H10H12H14H16H18H20H22H24H26H28H30V11H28V13H26V11H24H22H20H18H16H14H12H10V13H8V11H6V9ZM6 13V11H4V13V15V17V19V21V23V25H6V27H8H10H12H14H16H18H20H22H24H26H28H30V25H32V23V21V19V17V15V13V11H30V13H28V15H30V17V19V21H28V23H26V25H24H22H20H18H16H14H12H10V23H8V21H6V19V17V15H8V13H6ZM28 23V25H30V23H28ZM8 23V25H6V23H8ZM21 13V15H19H17V13H19H21ZM17 21H15V19V17V15H17V17H19H21V19H19H17V21ZM17 21H19H21V23H19H17V21Z" fill="#46FFAD"/>
</svg>
