<svg width="36" height="36" viewBox="0 0 36 36" fill="none" xmlns="http://www.w3.org/2000/svg">
<path fill-rule="evenodd" clip-rule="evenodd" d="M25.5 5.5H23.5V7.5H21.5V9.5V11.5H22.5V13.5H24.5V11.5H23.5V9.5V7.5H25.5V5.5ZM18.5 11.5H17.5V9.5H18.5V7.5H16.5V9.5H15.5V11.5H16.5V13.5H18.5V11.5ZM15.5 15.5H13.5V16.5H11.5V18.5H9.5V20.5H8.5V22.5V24.5H9.5V26.5H11.5V28.5H13.5V30.5H15.5H17.5H19.5H21.5H23.5H25H25.5H27V15.5H25.5H25H23.5H21.5H19.5H17.5H15.5ZM11.5 26.5H13.5V18.5H11.5V20.5H10.5V22.5V24.5H11.5V26.5Z" fill="#46FFAD"/>
</svg>
