<?xml version="1.0" encoding="UTF-8"?>
<svg width="88" height="150" version="1.1" viewBox="0 0 88 150" xml:space="preserve" xmlns="http://www.w3.org/2000/svg"><path d="m81.644 33.465c0 4.6119-5.9659 6.8738-6.1747 17.122-0.20876 10.248 6.6759 28.312 3.8099 37.209s-3.1696 11.646-0.54557 19.802c2.8102 8.7353 1.7059 23.891-5.7505 31.165s-28.064 1.436-29.217-17.903c-0.5275-8.8521-9.2569-16.959-21.837-19.913-15.103-3.5464-21.201-3.4315-21.201-25.505 0-13.567 5.833-25.951 19.426-28.308 14.557-2.524 23.834-4.6497 23.63-11.741-0.63449-22.112 8.7435-36.761 23.581-32.317 13.291 6.3524 15.803 10.232 14.278 30.389z" fill="#fff" fillRule="evenodd" stroke-width="0"/></svg>
