<svg width="28" height="18" viewBox="0 0 28 18" fill="none" xmlns="http://www.w3.org/2000/svg">
<path fillRule="evenodd" clipRule="evenodd" d="M12 1.5H16V2.5H17V3.5L18 3.5V7.5L17 7.5V8.5H16V9.5H12V8.5H11V7.5H10V3.5H11V2.5H12V1.5ZM6.00002 13.6666H7V13.6667H6.00002H6H4.66669V15.0001H6V16.5H8H10H12H14H16H18H20H22V15.0001H22H23.3333V13.6667H22H22H21V13.6666H22H22H23.3333H24.6667H26H26.6667V12.3333H26H26V11.6667H20V11.6667H20.6667V11H19V10.5H16V11.5H12V10.5H9V11H7.33334V11.6667H8V11.6667H2V12.3333H1.33333V13.6666H2H3.33333V12.3334H3.33334V13.6666H4.66668V12.3334H4.66669V13.6666H6H6.00002ZM7.33334 12.3334H7.33333V12.5H7.33334V12.3334ZM20.6667 5H23.3333L23.3333 5.66659H24V6.33325H23.3333L23.3333 6.33333H24.6666V9H23.3333L23.3333 9.00008H24V9.66675H23.3333L23.3333 10.3333H20.6667L20.6667 9.66675H20V9.00008H20.6667L20.6667 9H19.3333V6.33333H20.6667L20.6667 6.33325H20V5.66659H20.6667L20.6667 5ZM24.6667 13.6667H23.3333V15.0001H24.6667V13.6667ZM26 15.0001H26H24.6667V13.6667H26H26H27.3333V15.0001H26ZM25.3333 11H23.3333V11.6667H25.3333V11ZM7.33332 5H4.66666V5.66659H4V6.33325H4.66666V6.33333H3.33331V9H4.66666V9.00008H4V9.66675H4.66666V10.3333H7.33332V9.66675H7.99998V9.00008H7.33332V9H8.66665V6.33333H7.33332V6.33325H7.99998V5.66659H7.33332V5ZM2 13.6667H0.666687V15.0001H2H2.00002H3.33333V13.6667H2.00002H2ZM4.66668 13.6667H3.33334V15.0001H4.66668V13.6667ZM4.66669 11H2.66669V11.6667H4.66669V11Z" fill="#46FFAD"/>
</svg>
