<svg xmlns="http://www.w3.org/2000/svg" width="28" height="28" fill="none"><g clipPath="url(#a)"><path fill="#46FFAD" d="M23.23 3.502H5.399c-.854 0-1.544.674-1.544 1.508v17.906c0 .834.69 1.512 1.544 1.512h17.833c.854 0 1.549-.678 1.549-1.508V5.01c0-.834-.695-1.508-1.55-1.508ZM10.063 21.334H6.956v-9.989h3.106v9.99ZM8.509 9.984a1.8 1.8 0 1 1-.007-3.598 1.8 1.8 0 0 1 .007 3.598Zm13.177 11.35h-3.102V16.48c0-1.157-.02-2.649-1.615-2.649-1.614 0-1.86 1.263-1.86 2.567v4.937h-3.098v-9.989h2.976v1.365h.04c.414-.785 1.427-1.614 2.935-1.614 3.143 0 3.724 2.068 3.724 4.757v5.481Z"/></g><defs><clipPath id="a"><path fill="#fff" d="M3.926 3.502h20.926v20.926H3.926z"/></clipPath></defs></svg>