<svg width="36" height="36" viewBox="0 0 36 36" fill="none" xmlns="http://www.w3.org/2000/svg">
<path fill-rule="evenodd" clip-rule="evenodd" d="M8 7H6V9H4V11V13V15V17V19V21V23H6V25H8H10H12H14H16V27H14H12H10H8V29H10H12H14H16H18H20H22H24H26H28V27H26H24H22H20V25H22H24H26H28H30V23H32V21V19V17V15V13V11V9H30V7H28H26H24H22H20H18H16H14H12H10H8ZM30 9V11V13V15V17V19V21V23H28H26H24H22H20H18H16H14H12H10H8H6V21V19V17V15V13V11V9H8H10H12H14H16H18H20H22H24H26H28H30ZM14 14H12V16V18H14H16H18V16H20H22V18H24V16V14H22H20H18V16H16H14V14Z" fill="#46FFAD"/>
</svg>
