<svg width="36" height="36" viewBox="0 0 36 36" fill="none" xmlns="http://www.w3.org/2000/svg">
<path fillRule="evenodd" clipRule="evenodd" d="M11 5H13H15H17H19H21H23H25V7H23H21H19V11H15V15H11V19H15V23H9V19H7V21V23V25H5V23V21V19V17V15V13V11H7V9H9V7H11V5ZM9 27H7V25H9V27ZM11 29H9V27H11V29ZM25 29V31H23H21H19H17H15H13H11V29H13H15H17H19H21H23H25ZM27 27V29H25V27H27ZM29 25V27H27V25H29ZM27 9H29V11H31V13V15V17V19V21V23V25H29V23V21V19H27V21H26V25H20V21H19V19H17V15V13H21V11H27V9ZM27 9V7H25V9H27Z" fill="#46FFAD"/>
</svg>
