<svg xmlns="http://www.w3.org/2000/svg" width="100" height="100" viewBox="0 0 100 100" fill="none">
  <path d="M21.0947 9C16.5353 14.5796 12.7398 21.03 9 27.8832M9 52.6115C11.5945 49.5648 14.2733 45.7507 16.8504 40.9804C23.5354 28.6059 30.2156 17.2562 40.02 9M9 73.0088C13.9466 69.1615 19.9886 62.8079 25.6009 52.4192C35.4202 34.2431 45.2294 18.0353 62.8978 9M91 74.1849C87.058 79.4868 83.3887 85.1218 79.8571 91M91 53.0881C80.5811 63.7998 72.3971 76.8598 64.5306 91M91 35.4492C73.8024 47.9421 62.8319 66.4121 51.8524 86.7358C51.0513 88.2188 50.2434 89.6382 49.4315 91M91 10.0436C61.2075 17.4325 47.7888 38.9846 34.3514 63.8581C25.2496 80.7061 15.1286 87.9896 9.27632 91M32.5387 91C36.0331 86.8663 39.6347 81.715 43.1019 75.2969C55.514 52.3214 67.9124 31.9262 91 21.1895" stroke="black" stroke-width="1.25" stroke-miterlimit="10" stroke-linecap="round"/>
</svg>