<svg width="1718" height="104" viewBox="0 0 1718 104" fill="none" xmlns="http://www.w3.org/2000/svg">
<path d="M6.298 81V17.08H23.124L39.292 58.346L41.642 66.336L44.086 58.346L60.16 17.08H76.516V81H63.92L64.39 31.368L59.69 46.126L45.966 81H36.848L23.03 45.938L18.424 31.556L18.988 81H6.298ZM135.253 64.55C132.527 76.206 123.503 82.41 111.471 82.41C96.2428 82.41 86.9368 72.352 86.9368 55.902C86.9368 38.794 96.3368 29.206 111.001 29.206C125.759 29.206 134.877 39.17 134.877 55.432V58.252H99.3448C99.9088 67.464 104.139 72.54 111.471 72.54C117.111 72.54 120.965 69.908 122.563 64.55H135.253ZM111.001 39.076C104.609 39.076 100.755 43.118 99.6268 50.732H122.281C121.153 43.212 117.299 39.076 111.001 39.076ZM144.846 81V30.616H156.878V37.102C160.074 31.838 164.962 29.206 170.884 29.206C177.276 29.206 182.258 32.026 184.796 37.76C188.18 32.026 193.538 29.206 200.024 29.206C209.706 29.206 216.286 35.222 216.286 47.442V81H204.254V49.886C204.254 43.024 201.716 39.17 196.358 39.17C190.342 39.17 186.582 44.998 186.582 51.766V81H174.55V49.886C174.55 43.024 172.012 39.17 166.654 39.17C160.638 39.17 156.878 44.998 156.878 51.766V81H144.846ZM240.343 81H228.311V13.32H240.343V36.256C243.539 31.744 248.051 29.206 253.597 29.206C266.663 29.206 274.747 39.264 274.747 55.714C274.747 72.822 266.475 82.41 253.597 82.41C248.051 82.41 243.445 80.06 240.343 75.642V81ZM251.435 39.17C244.197 39.17 240.343 44.998 240.343 55.714C240.343 66.43 244.291 72.446 251.435 72.446C258.579 72.446 262.433 66.524 262.433 55.714C262.433 45.092 258.485 39.17 251.435 39.17ZM330.387 64.55C327.661 76.206 318.637 82.41 306.605 82.41C291.377 82.41 282.071 72.352 282.071 55.902C282.071 38.794 291.471 29.206 306.135 29.206C320.893 29.206 330.011 39.17 330.011 55.432V58.252H294.479C295.043 67.464 299.273 72.54 306.605 72.54C312.245 72.54 316.099 69.908 317.697 64.55H330.387ZM306.135 39.076C299.743 39.076 295.889 43.118 294.761 50.732H317.415C316.287 43.212 312.433 39.076 306.135 39.076ZM339.98 81V30.616H352.012V37.948C355.302 31.932 360.378 29.206 365.83 29.206C367.898 29.206 369.778 29.77 370.718 30.616V41.05C369.12 40.58 367.334 40.392 365.172 40.392C356.054 40.392 352.012 45.844 352.012 54.21V81H339.98ZM418.838 82.41C403.892 82.41 394.68 72.352 394.68 55.902C394.68 38.794 404.174 29.206 418.838 29.206C433.69 29.206 442.902 39.358 442.902 55.902C442.902 72.822 433.408 82.41 418.838 82.41ZM418.838 72.446C426.452 72.446 430.494 66.618 430.494 55.902C430.494 45.186 426.358 39.17 418.838 39.17C411.13 39.17 407.088 45.092 407.088 55.902C407.088 66.524 411.224 72.446 418.838 72.446ZM447.513 39.922V30.616H453.999V29.018C453.999 17.644 459.075 11.91 468.663 11.91C471.765 11.91 474.021 12.568 475.243 13.132V20.934H474.303C467.629 20.934 466.031 23.66 466.031 29.018V30.616H475.243V39.922H466.031V81H453.999V39.922H447.513ZM543.381 81L538.493 67.746H511.233L506.345 81H493.655L517.719 17.08H532.665L556.729 81H543.381ZM522.983 36.068L514.899 57.97H534.827L526.743 36.068L524.863 29.488L522.983 36.068ZM581.325 81.188C568.541 81.188 560.645 71.318 560.645 55.244C560.645 38.512 568.729 29.206 581.325 29.206C587.341 29.206 592.041 31.462 595.143 35.692V30.616H607.175V82.598C607.175 96.228 597.775 103.184 585.273 103.184C572.865 103.184 563.841 97.45 562.055 85.512H574.181C574.933 90.87 579.257 93.69 585.085 93.69C591.101 93.69 595.143 90.776 595.143 82.786V74.326C591.853 78.838 587.153 81.188 581.325 81.188ZM584.051 71.224C591.289 71.224 595.143 65.584 595.143 55.244C595.143 44.998 591.101 39.17 584.051 39.17C576.907 39.17 573.053 44.81 573.053 55.244C573.053 65.49 576.907 71.224 584.051 71.224ZM665.163 64.55C662.437 76.206 653.413 82.41 641.381 82.41C626.153 82.41 616.847 72.352 616.847 55.902C616.847 38.794 626.247 29.206 640.911 29.206C655.669 29.206 664.787 39.17 664.787 55.432V58.252H629.255C629.819 67.464 634.049 72.54 641.381 72.54C647.021 72.54 650.875 69.908 652.473 64.55H665.163ZM640.911 39.076C634.519 39.076 630.665 43.118 629.537 50.732H652.191C651.063 43.212 647.209 39.076 640.911 39.076ZM674.756 81V30.616H686.788V37.384C690.078 31.932 695.342 29.206 701.734 29.206C711.792 29.206 718.654 35.222 718.654 47.442V81H706.622V49.886C706.622 43.024 703.708 39.17 697.598 39.17C690.924 39.17 686.788 44.998 686.788 51.766V81H674.756ZM732.281 65.302V39.922H725.795V30.616H732.281V19.054H744.313V30.616H754.935V39.922H744.313V64.268C744.313 69.532 745.817 72.352 752.491 72.352H754.747V81.188C753.431 81.846 750.705 82.41 747.415 82.41C737.169 82.41 732.281 76.582 732.281 65.302ZM762.925 24.976V13.32H774.957V24.976H762.925ZM762.925 81V30.616H774.957V81H762.925ZM830.522 48.476H818.49C817.362 41.896 813.414 39.17 808.338 39.17C800.912 39.17 796.964 45.092 796.964 55.902C796.964 66.524 801.1 72.446 808.714 72.446C813.884 72.446 817.55 69.626 818.772 63.892H830.898C828.642 76.488 819.806 82.41 808.432 82.41C793.58 82.41 784.556 72.258 784.556 55.902C784.556 38.794 793.862 29.206 808.338 29.206C819.806 29.206 828.83 35.598 830.522 48.476ZM915.406 36.82H902.153C900.179 29.864 894.821 26.198 887.677 26.198C876.96 26.198 870.756 34.94 870.756 49.134C870.756 63.422 876.866 71.882 887.677 71.882C894.444 71.882 899.803 68.404 901.964 61.73H915.313C911.928 75.078 900.931 82.41 887.865 82.41C869.158 82.41 857.784 69.814 857.784 49.134C857.784 28.548 869.346 15.67 888.053 15.67C901.307 15.67 912.493 22.908 915.406 36.82ZM946.935 82.41C931.989 82.41 922.777 72.352 922.777 55.902C922.777 38.794 932.271 29.206 946.935 29.206C961.787 29.206 970.999 39.358 970.999 55.902C970.999 72.822 961.505 82.41 946.935 82.41ZM946.935 72.446C954.549 72.446 958.591 66.618 958.591 55.902C958.591 45.186 954.455 39.17 946.935 39.17C939.227 39.17 935.185 45.092 935.185 55.902C935.185 66.524 939.321 72.446 946.935 72.446ZM980.686 81V30.616H992.718V37.102C995.914 31.838 1000.8 29.206 1006.72 29.206C1013.12 29.206 1018.1 32.026 1020.64 37.76C1024.02 32.026 1029.38 29.206 1035.86 29.206C1045.55 29.206 1052.13 35.222 1052.13 47.442V81H1040.09V49.886C1040.09 43.024 1037.56 39.17 1032.2 39.17C1026.18 39.17 1022.42 44.998 1022.42 51.766V81H1010.39V49.886C1010.39 43.024 1007.85 39.17 1002.49 39.17C996.478 39.17 992.718 44.998 992.718 51.766V81H980.686ZM1064.15 81V30.616H1076.18V37.102C1079.38 31.838 1084.27 29.206 1090.19 29.206C1096.58 29.206 1101.56 32.026 1104.1 37.76C1107.49 32.026 1112.84 29.206 1119.33 29.206C1129.01 29.206 1135.59 35.222 1135.59 47.442V81H1123.56V49.886C1123.56 43.024 1121.02 39.17 1115.66 39.17C1109.65 39.17 1105.89 44.998 1105.89 51.766V81H1093.86V49.886C1093.86 43.024 1091.32 39.17 1085.96 39.17C1079.94 39.17 1076.18 44.998 1076.18 51.766V81H1064.15ZM1193.58 64.55C1190.86 76.206 1181.83 82.41 1169.8 82.41C1154.57 82.41 1145.27 72.352 1145.27 55.902C1145.27 38.794 1154.67 29.206 1169.33 29.206C1184.09 29.206 1193.21 39.17 1193.21 55.432V58.252H1157.67C1158.24 67.464 1162.47 72.54 1169.8 72.54C1175.44 72.54 1179.29 69.908 1180.89 64.55H1193.58ZM1169.33 39.076C1162.94 39.076 1159.08 43.118 1157.96 50.732H1180.61C1179.48 43.212 1175.63 39.076 1169.33 39.076ZM1203.18 81V30.616H1215.21V37.948C1218.5 31.932 1223.57 29.206 1229.03 29.206C1231.09 29.206 1232.97 29.77 1233.91 30.616V41.05C1232.32 40.58 1230.53 40.392 1228.37 40.392C1219.25 40.392 1215.21 45.844 1215.21 54.21V81H1203.18ZM1283.9 48.476H1271.87C1270.74 41.896 1266.79 39.17 1261.72 39.17C1254.29 39.17 1250.34 45.092 1250.34 55.902C1250.34 66.524 1254.48 72.446 1262.09 72.446C1267.26 72.446 1270.93 69.626 1272.15 63.892H1284.28C1282.02 76.488 1273.18 82.41 1261.81 82.41C1246.96 82.41 1237.93 72.258 1237.93 55.902C1237.93 38.794 1247.24 29.206 1261.72 29.206C1273.18 29.206 1282.21 35.598 1283.9 48.476ZM1339.51 64.55C1336.79 76.206 1327.76 82.41 1315.73 82.41C1300.5 82.41 1291.2 72.352 1291.2 55.902C1291.2 38.794 1300.6 29.206 1315.26 29.206C1330.02 29.206 1339.14 39.17 1339.14 55.432V58.252H1303.61C1304.17 67.464 1308.4 72.54 1315.73 72.54C1321.37 72.54 1325.23 69.908 1326.82 64.55H1339.51ZM1315.26 39.076C1308.87 39.076 1305.02 43.118 1303.89 50.732H1326.54C1325.41 43.212 1321.56 39.076 1315.26 39.076ZM1410.59 81L1405.71 67.746H1378.45L1373.56 81H1360.87L1384.93 17.08H1399.88L1423.94 81H1410.59ZM1390.2 36.068L1382.11 57.97H1402.04L1393.96 36.068L1392.08 29.488L1390.2 36.068ZM1431.58 81V13.32H1443.62V81H1431.58ZM1455.57 81V13.32H1467.6V81H1455.57ZM1479.55 24.976V13.32H1491.58V24.976H1479.55ZM1479.55 81V30.616H1491.58V81H1479.55ZM1515.18 47.16H1503.06C1504.66 35.974 1512.83 29.206 1525.52 29.206C1539.53 29.206 1546.67 37.478 1546.67 49.134V68.686C1546.67 74.89 1547.24 78.368 1548.18 81H1535.68C1535.02 79.308 1534.74 76.864 1534.64 74.138C1530.51 79.966 1524.3 82.41 1518.29 82.41C1508.42 82.41 1501.37 77.522 1501.37 67.84C1501.37 60.978 1505.22 55.808 1512.93 53.27C1519.6 51.014 1526.09 50.45 1534.55 50.356V49.134C1534.55 42.648 1531.45 39.17 1524.77 39.17C1519.04 39.17 1515.94 42.366 1515.18 47.16ZM1513.49 67.182C1513.49 71.036 1516.5 73.48 1521.39 73.48C1528.81 73.48 1534.55 67.464 1534.55 59.944V57.782C1517.44 58.064 1513.49 62.106 1513.49 67.182ZM1559.09 81V30.616H1571.12V37.384C1574.41 31.932 1579.67 29.206 1586.06 29.206C1596.12 29.206 1602.98 35.222 1602.98 47.442V81H1590.95V49.886C1590.95 43.024 1588.04 39.17 1581.93 39.17C1575.25 39.17 1571.12 44.998 1571.12 51.766V81H1559.09ZM1658.63 48.476H1646.6C1645.47 41.896 1641.52 39.17 1636.45 39.17C1629.02 39.17 1625.07 45.092 1625.07 55.902C1625.07 66.524 1629.21 72.446 1636.82 72.446C1641.99 72.446 1645.66 69.626 1646.88 63.892H1659.01C1656.75 76.488 1647.91 82.41 1636.54 82.41C1621.69 82.41 1612.66 72.258 1612.66 55.902C1612.66 38.794 1621.97 29.206 1636.45 29.206C1647.91 29.206 1656.94 35.598 1658.63 48.476ZM1714.24 64.55C1711.52 76.206 1702.49 82.41 1690.46 82.41C1675.23 82.41 1665.93 72.352 1665.93 55.902C1665.93 38.794 1675.33 29.206 1689.99 29.206C1704.75 29.206 1713.87 39.17 1713.87 55.432V58.252H1678.34C1678.9 67.464 1683.13 72.54 1690.46 72.54C1696.1 72.54 1699.96 69.908 1701.55 64.55H1714.24ZM1689.99 39.076C1683.6 39.076 1679.75 43.118 1678.62 50.732H1701.27C1700.14 43.212 1696.29 39.076 1689.99 39.076Z" fill="white"/>
</svg>
