<svg width="1767" height="188" viewBox="0 0 1767 188" fill="none" xmlns="http://www.w3.org/2000/svg">
<path d="M6.298 81V17.08H23.124L39.292 58.346L41.642 66.336L44.086 58.346L60.16 17.08H76.516V81H63.92L64.39 31.368L59.69 46.126L45.966 81H36.848L23.03 45.938L18.424 31.556L18.988 81H6.298ZM135.253 64.55C132.527 76.206 123.503 82.41 111.471 82.41C96.2428 82.41 86.9368 72.352 86.9368 55.902C86.9368 38.794 96.3368 29.206 111.001 29.206C125.759 29.206 134.877 39.17 134.877 55.432V58.252H99.3448C99.9088 67.464 104.139 72.54 111.471 72.54C117.111 72.54 120.965 69.908 122.563 64.55H135.253ZM111.001 39.076C104.609 39.076 100.755 43.118 99.6268 50.732H122.281C121.153 43.212 117.299 39.076 111.001 39.076ZM144.846 81V30.616H156.878V37.102C160.074 31.838 164.962 29.206 170.884 29.206C177.276 29.206 182.258 32.026 184.796 37.76C188.18 32.026 193.538 29.206 200.024 29.206C209.706 29.206 216.286 35.222 216.286 47.442V81H204.254V49.886C204.254 43.024 201.716 39.17 196.358 39.17C190.342 39.17 186.582 44.998 186.582 51.766V81H174.55V49.886C174.55 43.024 172.012 39.17 166.654 39.17C160.638 39.17 156.878 44.998 156.878 51.766V81H144.846ZM240.343 81H228.311V13.32H240.343V36.256C243.539 31.744 248.051 29.206 253.597 29.206C266.663 29.206 274.747 39.264 274.747 55.714C274.747 72.822 266.475 82.41 253.597 82.41C248.051 82.41 243.445 80.06 240.343 75.642V81ZM251.435 39.17C244.197 39.17 240.343 44.998 240.343 55.714C240.343 66.43 244.291 72.446 251.435 72.446C258.579 72.446 262.433 66.524 262.433 55.714C262.433 45.092 258.485 39.17 251.435 39.17ZM330.387 64.55C327.661 76.206 318.637 82.41 306.605 82.41C291.377 82.41 282.071 72.352 282.071 55.902C282.071 38.794 291.471 29.206 306.135 29.206C320.893 29.206 330.011 39.17 330.011 55.432V58.252H294.479C295.043 67.464 299.273 72.54 306.605 72.54C312.245 72.54 316.099 69.908 317.697 64.55H330.387ZM306.135 39.076C299.743 39.076 295.889 43.118 294.761 50.732H317.415C316.287 43.212 312.433 39.076 306.135 39.076ZM339.98 81V30.616H352.012V37.948C355.302 31.932 360.378 29.206 365.83 29.206C367.898 29.206 369.778 29.77 370.718 30.616V41.05C369.12 40.58 367.334 40.392 365.172 40.392C356.054 40.392 352.012 45.844 352.012 54.21V81H339.98ZM418.838 82.41C403.892 82.41 394.68 72.352 394.68 55.902C394.68 38.794 404.174 29.206 418.838 29.206C433.69 29.206 442.902 39.358 442.902 55.902C442.902 72.822 433.408 82.41 418.838 82.41ZM418.838 72.446C426.452 72.446 430.494 66.618 430.494 55.902C430.494 45.186 426.358 39.17 418.838 39.17C411.13 39.17 407.088 45.092 407.088 55.902C407.088 66.524 411.224 72.446 418.838 72.446ZM447.513 39.922V30.616H453.999V29.018C453.999 17.644 459.075 11.91 468.663 11.91C471.765 11.91 474.021 12.568 475.243 13.132V20.934H474.303C467.629 20.934 466.031 23.66 466.031 29.018V30.616H475.243V39.922H466.031V81H453.999V39.922H447.513ZM543.381 81L538.493 67.746H511.233L506.345 81H493.655L517.719 17.08H532.665L556.729 81H543.381ZM522.983 36.068L514.899 57.97H534.827L526.743 36.068L524.863 29.488L522.983 36.068ZM581.325 81.188C568.541 81.188 560.645 71.318 560.645 55.244C560.645 38.512 568.729 29.206 581.325 29.206C587.341 29.206 592.041 31.462 595.143 35.692V30.616H607.175V82.598C607.175 96.228 597.775 103.184 585.273 103.184C572.865 103.184 563.841 97.45 562.055 85.512H574.181C574.933 90.87 579.257 93.69 585.085 93.69C591.101 93.69 595.143 90.776 595.143 82.786V74.326C591.853 78.838 587.153 81.188 581.325 81.188ZM584.051 71.224C591.289 71.224 595.143 65.584 595.143 55.244C595.143 44.998 591.101 39.17 584.051 39.17C576.907 39.17 573.053 44.81 573.053 55.244C573.053 65.49 576.907 71.224 584.051 71.224ZM665.163 64.55C662.437 76.206 653.413 82.41 641.381 82.41C626.153 82.41 616.847 72.352 616.847 55.902C616.847 38.794 626.247 29.206 640.911 29.206C655.669 29.206 664.787 39.17 664.787 55.432V58.252H629.255C629.819 67.464 634.049 72.54 641.381 72.54C647.021 72.54 650.875 69.908 652.473 64.55H665.163ZM640.911 39.076C634.519 39.076 630.665 43.118 629.537 50.732H652.191C651.063 43.212 647.209 39.076 640.911 39.076ZM674.756 81V30.616H686.788V37.384C690.078 31.932 695.342 29.206 701.734 29.206C711.792 29.206 718.654 35.222 718.654 47.442V81H706.622V49.886C706.622 43.024 703.708 39.17 697.598 39.17C690.924 39.17 686.788 44.998 686.788 51.766V81H674.756ZM732.281 65.302V39.922H725.795V30.616H732.281V19.054H744.313V30.616H754.935V39.922H744.313V64.268C744.313 69.532 745.817 72.352 752.491 72.352H754.747V81.188C753.431 81.846 750.705 82.41 747.415 82.41C737.169 82.41 732.281 76.582 732.281 65.302ZM762.925 24.976V13.32H774.957V24.976H762.925ZM762.925 81V30.616H774.957V81H762.925ZM830.522 48.476H818.49C817.362 41.896 813.414 39.17 808.338 39.17C800.912 39.17 796.964 45.092 796.964 55.902C796.964 66.524 801.1 72.446 808.714 72.446C813.884 72.446 817.55 69.626 818.772 63.892H830.898C828.642 76.488 819.806 82.41 808.432 82.41C793.58 82.41 784.556 72.258 784.556 55.902C784.556 38.794 793.862 29.206 808.338 29.206C819.806 29.206 828.83 35.598 830.522 48.476ZM61.758 130.82H48.504C46.53 123.864 41.172 120.198 34.028 120.198C23.312 120.198 17.108 128.94 17.108 143.134C17.108 157.422 23.218 165.882 34.028 165.882C40.796 165.882 46.154 162.404 48.316 155.73H61.664C58.28 169.078 47.282 176.41 34.216 176.41C15.51 176.41 4.136 163.814 4.136 143.134C4.136 122.548 15.698 109.67 34.404 109.67C47.658 109.67 58.844 116.908 61.758 130.82ZM93.2862 176.41C78.3402 176.41 69.1282 166.352 69.1282 149.902C69.1282 132.794 78.6222 123.206 93.2862 123.206C108.138 123.206 117.35 133.358 117.35 149.902C117.35 166.822 107.856 176.41 93.2862 176.41ZM93.2862 166.446C100.9 166.446 104.942 160.618 104.942 149.902C104.942 139.186 100.806 133.17 93.2862 133.17C85.5782 133.17 81.5362 139.092 81.5362 149.902C81.5362 160.524 85.6722 166.446 93.2862 166.446ZM127.037 175V124.616H139.069V131.102C142.265 125.838 147.153 123.206 153.075 123.206C159.467 123.206 164.449 126.026 166.987 131.76C170.371 126.026 175.729 123.206 182.215 123.206C191.897 123.206 198.477 129.222 198.477 141.442V175H186.445V143.886C186.445 137.024 183.907 133.17 178.549 133.17C172.533 133.17 168.773 138.998 168.773 145.766V175H156.741V143.886C156.741 137.024 154.203 133.17 148.845 133.17C142.829 133.17 139.069 138.998 139.069 145.766V175H127.037ZM210.503 175V124.616H222.535V131.102C225.731 125.838 230.619 123.206 236.541 123.206C242.933 123.206 247.915 126.026 250.453 131.76C253.837 126.026 259.195 123.206 265.681 123.206C275.363 123.206 281.943 129.222 281.943 141.442V175H269.911V143.886C269.911 137.024 267.373 133.17 262.015 133.17C255.999 133.17 252.239 138.998 252.239 145.766V175H240.207V143.886C240.207 137.024 237.669 133.17 232.311 133.17C226.295 133.17 222.535 138.998 222.535 145.766V175H210.503ZM339.934 158.55C337.208 170.206 328.184 176.41 316.152 176.41C300.924 176.41 291.618 166.352 291.618 149.902C291.618 132.794 301.018 123.206 315.682 123.206C330.44 123.206 339.558 133.17 339.558 149.432V152.252H304.026C304.59 161.464 308.82 166.54 316.152 166.54C321.792 166.54 325.646 163.908 327.244 158.55H339.934ZM315.682 133.076C309.29 133.076 305.436 137.118 304.308 144.732H326.962C325.834 137.212 321.98 133.076 315.682 133.076ZM349.527 175V124.616H361.559V131.948C364.849 125.932 369.925 123.206 375.377 123.206C377.445 123.206 379.325 123.77 380.265 124.616V135.05C378.667 134.58 376.881 134.392 374.719 134.392C365.601 134.392 361.559 139.844 361.559 148.21V175H349.527ZM430.251 142.476H418.219C417.091 135.896 413.143 133.17 408.067 133.17C400.641 133.17 396.693 139.092 396.693 149.902C396.693 160.524 400.829 166.446 408.443 166.446C413.613 166.446 417.279 163.626 418.501 157.892H430.627C428.371 170.488 419.535 176.41 408.161 176.41C393.309 176.41 384.285 166.258 384.285 149.902C384.285 132.794 393.591 123.206 408.067 123.206C419.535 123.206 428.559 129.598 430.251 142.476ZM485.865 158.55C483.139 170.206 474.115 176.41 462.083 176.41C446.855 176.41 437.549 166.352 437.549 149.902C437.549 132.794 446.949 123.206 461.613 123.206C476.371 123.206 485.489 133.17 485.489 149.432V152.252H449.957C450.521 161.464 454.751 166.54 462.083 166.54C467.723 166.54 471.577 163.908 473.175 158.55H485.865ZM461.613 133.076C455.221 133.076 451.367 137.118 450.239 144.732H472.893C471.765 137.212 467.911 133.076 461.613 133.076ZM556.945 175L552.057 161.746H524.797L519.909 175H507.219L531.283 111.08H546.229L570.293 175H556.945ZM536.547 130.068L528.463 151.97H548.391L540.307 130.068L538.427 123.488L536.547 130.068ZM577.936 175V107.32H589.968V175H577.936ZM601.917 175V107.32H613.949V175H601.917ZM625.898 118.976V107.32H637.93V118.976H625.898ZM625.898 175V124.616H637.93V175H625.898ZM661.535 141.16H649.409C651.007 129.974 659.185 123.206 671.875 123.206C685.881 123.206 693.025 131.478 693.025 143.134V162.686C693.025 168.89 693.589 172.368 694.529 175H682.027C681.369 173.308 681.087 170.864 680.993 168.138C676.857 173.966 670.653 176.41 664.637 176.41C654.767 176.41 647.717 171.522 647.717 161.84C647.717 154.978 651.571 149.808 659.279 147.27C665.953 145.014 672.439 144.45 680.899 144.356V143.134C680.899 136.648 677.797 133.17 671.123 133.17C665.389 133.17 662.287 136.366 661.535 141.16ZM659.843 161.182C659.843 165.036 662.851 167.48 667.739 167.48C675.165 167.48 680.899 161.464 680.899 153.944V151.782C663.791 152.064 659.843 156.106 659.843 161.182ZM705.438 175V124.616H717.47V131.384C720.76 125.932 726.024 123.206 732.416 123.206C742.474 123.206 749.336 129.222 749.336 141.442V175H737.304V143.886C737.304 137.024 734.39 133.17 728.28 133.17C721.606 133.17 717.47 138.998 717.47 145.766V175H705.438ZM804.981 142.476H792.949C791.821 135.896 787.873 133.17 782.797 133.17C775.371 133.17 771.423 139.092 771.423 149.902C771.423 160.524 775.559 166.446 783.173 166.446C788.343 166.446 792.009 163.626 793.231 157.892H805.357C803.101 170.488 794.265 176.41 782.891 176.41C768.039 176.41 759.015 166.258 759.015 149.902C759.015 132.794 768.321 123.206 782.797 123.206C794.265 123.206 803.289 129.598 804.981 142.476ZM860.595 158.55C857.869 170.206 848.845 176.41 836.813 176.41C821.585 176.41 812.279 166.352 812.279 149.902C812.279 132.794 821.679 123.206 836.343 123.206C851.101 123.206 860.219 133.17 860.219 149.432V152.252H824.687C825.251 161.464 829.481 166.54 836.813 166.54C842.453 166.54 846.307 163.908 847.905 158.55H860.595ZM836.343 133.076C829.951 133.076 826.097 137.118 824.969 144.732H847.623C846.495 137.212 842.641 133.076 836.343 133.076Z" fill="#262C40"/>
<g clip-path="url(#clip0_130_11792)">
<path d="M1688.13 175.543L1672.64 148.629H1573.27L1557.78 175.543H1480.57L1580.42 13.1094H1666.45L1766.3 175.543H1688.13ZM1598.53 104.568H1647.38L1623.08 62.4111L1598.53 104.568Z" fill="#262C40"/>
<path d="M1295.89 94C1295.89 114.579 1305.59 123.095 1361.65 123.095C1397.84 123.095 1435.22 116.945 1463.13 111.977L1474.48 164.727C1439.95 172.533 1399.03 177.5 1359.29 177.5C1264.43 177.5 1232.03 146.513 1232.03 94C1232.03 41.4872 1264.43 10.5 1359.29 10.5C1399.03 10.5 1439.95 15.4674 1474.48 23.2734L1463.13 76.0227C1435.22 71.0552 1397.84 64.9051 1361.65 64.9051C1305.59 64.9051 1295.89 73.4207 1295.89 94Z" fill="#262C40"/>
<path d="M1167.56 175.543L1152.07 148.629H1052.7L1037.21 175.543H960L1059.85 13.1094H1145.88L1245.73 175.543H1167.56ZM1077.96 104.568H1126.81L1102.51 62.4111L1077.96 104.568Z" fill="#262C40"/>
</g>
<defs>
<clipPath id="clip0_130_11792">
<rect width="806.297" height="167" fill="white" transform="translate(960 10.5)"/>
</clipPath>
</defs>
</svg>
