<svg width="2281" height="107" viewBox="0 0 2281 107" fill="none" xmlns="http://www.w3.org/2000/svg">
<path d="M6.298 84V20.08H23.124L39.292 61.346L41.642 69.336L44.086 61.346L60.16 20.08H76.516V84H63.92L64.39 34.368L59.69 49.126L45.966 84H36.848L23.03 48.938L18.424 34.556L18.988 84H6.298ZM135.253 67.55C132.527 79.206 123.503 85.41 111.471 85.41C96.2428 85.41 86.9368 75.352 86.9368 58.902C86.9368 41.794 96.3368 32.206 111.001 32.206C125.759 32.206 134.877 42.17 134.877 58.432V61.252H99.3448C99.9088 70.464 104.139 75.54 111.471 75.54C117.111 75.54 120.965 72.908 122.563 67.55H135.253ZM111.001 42.076C104.609 42.076 100.755 46.118 99.6268 53.732H122.281C121.153 46.212 117.299 42.076 111.001 42.076ZM144.846 84V33.616H156.878V40.102C160.074 34.838 164.962 32.206 170.884 32.206C177.276 32.206 182.258 35.026 184.796 40.76C188.18 35.026 193.538 32.206 200.024 32.206C209.706 32.206 216.286 38.222 216.286 50.442V84H204.254V52.886C204.254 46.024 201.716 42.17 196.358 42.17C190.342 42.17 186.582 47.998 186.582 54.766V84H174.55V52.886C174.55 46.024 172.012 42.17 166.654 42.17C160.638 42.17 156.878 47.998 156.878 54.766V84H144.846ZM240.343 84H228.311V16.32H240.343V39.256C243.539 34.744 248.051 32.206 253.597 32.206C266.663 32.206 274.747 42.264 274.747 58.714C274.747 75.822 266.475 85.41 253.597 85.41C248.051 85.41 243.445 83.06 240.343 78.642V84ZM251.435 42.17C244.197 42.17 240.343 47.998 240.343 58.714C240.343 69.43 244.291 75.446 251.435 75.446C258.579 75.446 262.433 69.524 262.433 58.714C262.433 48.092 258.485 42.17 251.435 42.17ZM330.387 67.55C327.661 79.206 318.637 85.41 306.605 85.41C291.377 85.41 282.071 75.352 282.071 58.902C282.071 41.794 291.471 32.206 306.135 32.206C320.893 32.206 330.011 42.17 330.011 58.432V61.252H294.479C295.043 70.464 299.273 75.54 306.605 75.54C312.245 75.54 316.099 72.908 317.697 67.55H330.387ZM306.135 42.076C299.743 42.076 295.889 46.118 294.761 53.732H317.415C316.287 46.212 312.433 42.076 306.135 42.076ZM339.98 84V33.616H352.012V40.948C355.302 34.932 360.378 32.206 365.83 32.206C367.898 32.206 369.778 32.77 370.718 33.616V44.05C369.12 43.58 367.334 43.392 365.172 43.392C356.054 43.392 352.012 48.844 352.012 57.21V84H339.98ZM418.838 85.41C403.892 85.41 394.68 75.352 394.68 58.902C394.68 41.794 404.174 32.206 418.838 32.206C433.69 32.206 442.902 42.358 442.902 58.902C442.902 75.822 433.408 85.41 418.838 85.41ZM418.838 75.446C426.452 75.446 430.494 69.618 430.494 58.902C430.494 48.186 426.358 42.17 418.838 42.17C411.13 42.17 407.088 48.092 407.088 58.902C407.088 69.524 411.224 75.446 418.838 75.446ZM447.513 42.922V33.616H453.999V32.018C453.999 20.644 459.075 14.91 468.663 14.91C471.765 14.91 474.021 15.568 475.243 16.132V23.934H474.303C467.629 23.934 466.031 26.66 466.031 32.018V33.616H475.243V42.922H466.031V84H453.999V42.922H447.513ZM543.381 84L538.493 70.746H511.233L506.345 84H493.655L517.719 20.08H532.665L556.729 84H543.381ZM522.983 39.068L514.899 60.97H534.827L526.743 39.068L524.863 32.488L522.983 39.068ZM581.325 84.188C568.541 84.188 560.645 74.318 560.645 58.244C560.645 41.512 568.729 32.206 581.325 32.206C587.341 32.206 592.041 34.462 595.143 38.692V33.616H607.175V85.598C607.175 99.228 597.775 106.184 585.273 106.184C572.865 106.184 563.841 100.45 562.055 88.512H574.181C574.933 93.87 579.257 96.69 585.085 96.69C591.101 96.69 595.143 93.776 595.143 85.786V77.326C591.853 81.838 587.153 84.188 581.325 84.188ZM584.051 74.224C591.289 74.224 595.143 68.584 595.143 58.244C595.143 47.998 591.101 42.17 584.051 42.17C576.907 42.17 573.053 47.81 573.053 58.244C573.053 68.49 576.907 74.224 584.051 74.224ZM665.163 67.55C662.437 79.206 653.413 85.41 641.381 85.41C626.153 85.41 616.847 75.352 616.847 58.902C616.847 41.794 626.247 32.206 640.911 32.206C655.669 32.206 664.787 42.17 664.787 58.432V61.252H629.255C629.819 70.464 634.049 75.54 641.381 75.54C647.021 75.54 650.875 72.908 652.473 67.55H665.163ZM640.911 42.076C634.519 42.076 630.665 46.118 629.537 53.732H652.191C651.063 46.212 647.209 42.076 640.911 42.076ZM674.756 84V33.616H686.788V40.384C690.078 34.932 695.342 32.206 701.734 32.206C711.792 32.206 718.654 38.222 718.654 50.442V84H706.622V52.886C706.622 46.024 703.708 42.17 697.598 42.17C690.924 42.17 686.788 47.998 686.788 54.766V84H674.756ZM732.281 68.302V42.922H725.795V33.616H732.281V22.054H744.313V33.616H754.935V42.922H744.313V67.268C744.313 72.532 745.817 75.352 752.491 75.352H754.747V84.188C753.431 84.846 750.705 85.41 747.415 85.41C737.169 85.41 732.281 79.582 732.281 68.302ZM762.925 27.976V16.32H774.957V27.976H762.925ZM762.925 84V33.616H774.957V84H762.925ZM830.522 51.476H818.49C817.362 44.896 813.414 42.17 808.338 42.17C800.912 42.17 796.964 48.092 796.964 58.902C796.964 69.524 801.1 75.446 808.714 75.446C813.884 75.446 817.55 72.626 818.772 66.892H830.898C828.642 79.488 819.806 85.41 808.432 85.41C793.58 85.41 784.556 75.258 784.556 58.902C784.556 41.794 793.862 32.206 808.338 32.206C819.806 32.206 828.83 38.598 830.522 51.476ZM915.406 39.82H902.153C900.179 32.864 894.821 29.198 887.677 29.198C876.96 29.198 870.756 37.94 870.756 52.134C870.756 66.422 876.866 74.882 887.677 74.882C894.444 74.882 899.803 71.404 901.964 64.73H915.313C911.928 78.078 900.931 85.41 887.865 85.41C869.158 85.41 857.784 72.814 857.784 52.134C857.784 31.548 869.346 18.67 888.053 18.67C901.307 18.67 912.493 25.908 915.406 39.82ZM946.935 85.41C931.989 85.41 922.777 75.352 922.777 58.902C922.777 41.794 932.271 32.206 946.935 32.206C961.787 32.206 970.999 42.358 970.999 58.902C970.999 75.822 961.505 85.41 946.935 85.41ZM946.935 75.446C954.549 75.446 958.591 69.618 958.591 58.902C958.591 48.186 954.455 42.17 946.935 42.17C939.227 42.17 935.185 48.092 935.185 58.902C935.185 69.524 939.321 75.446 946.935 75.446ZM980.686 84V33.616H992.718V40.102C995.914 34.838 1000.8 32.206 1006.72 32.206C1013.12 32.206 1018.1 35.026 1020.64 40.76C1024.02 35.026 1029.38 32.206 1035.86 32.206C1045.55 32.206 1052.13 38.222 1052.13 50.442V84H1040.09V52.886C1040.09 46.024 1037.56 42.17 1032.2 42.17C1026.18 42.17 1022.42 47.998 1022.42 54.766V84H1010.39V52.886C1010.39 46.024 1007.85 42.17 1002.49 42.17C996.478 42.17 992.718 47.998 992.718 54.766V84H980.686ZM1064.15 84V33.616H1076.18V40.102C1079.38 34.838 1084.27 32.206 1090.19 32.206C1096.58 32.206 1101.56 35.026 1104.1 40.76C1107.49 35.026 1112.84 32.206 1119.33 32.206C1129.01 32.206 1135.59 38.222 1135.59 50.442V84H1123.56V52.886C1123.56 46.024 1121.02 42.17 1115.66 42.17C1109.65 42.17 1105.89 47.998 1105.89 54.766V84H1093.86V52.886C1093.86 46.024 1091.32 42.17 1085.96 42.17C1079.94 42.17 1076.18 47.998 1076.18 54.766V84H1064.15ZM1193.58 67.55C1190.86 79.206 1181.83 85.41 1169.8 85.41C1154.57 85.41 1145.27 75.352 1145.27 58.902C1145.27 41.794 1154.67 32.206 1169.33 32.206C1184.09 32.206 1193.21 42.17 1193.21 58.432V61.252H1157.67C1158.24 70.464 1162.47 75.54 1169.8 75.54C1175.44 75.54 1179.29 72.908 1180.89 67.55H1193.58ZM1169.33 42.076C1162.94 42.076 1159.08 46.118 1157.96 53.732H1180.61C1179.48 46.212 1175.63 42.076 1169.33 42.076ZM1203.18 84V33.616H1215.21V40.948C1218.5 34.932 1223.57 32.206 1229.03 32.206C1231.09 32.206 1232.97 32.77 1233.91 33.616V44.05C1232.32 43.58 1230.53 43.392 1228.37 43.392C1219.25 43.392 1215.21 48.844 1215.21 57.21V84H1203.18ZM1283.9 51.476H1271.87C1270.74 44.896 1266.79 42.17 1261.72 42.17C1254.29 42.17 1250.34 48.092 1250.34 58.902C1250.34 69.524 1254.48 75.446 1262.09 75.446C1267.26 75.446 1270.93 72.626 1272.15 66.892H1284.28C1282.02 79.488 1273.18 85.41 1261.81 85.41C1246.96 85.41 1237.93 75.258 1237.93 58.902C1237.93 41.794 1247.24 32.206 1261.72 32.206C1273.18 32.206 1282.21 38.598 1283.9 51.476ZM1339.51 67.55C1336.79 79.206 1327.76 85.41 1315.73 85.41C1300.5 85.41 1291.2 75.352 1291.2 58.902C1291.2 41.794 1300.6 32.206 1315.26 32.206C1330.02 32.206 1339.14 42.17 1339.14 58.432V61.252H1303.61C1304.17 70.464 1308.4 75.54 1315.73 75.54C1321.37 75.54 1325.23 72.908 1326.82 67.55H1339.51ZM1315.26 42.076C1308.87 42.076 1305.02 46.118 1303.89 53.732H1326.54C1325.41 46.212 1321.56 42.076 1315.26 42.076ZM1410.59 84L1405.71 70.746H1378.45L1373.56 84H1360.87L1384.93 20.08H1399.88L1423.94 84H1410.59ZM1390.2 39.068L1382.11 60.97H1402.04L1393.96 39.068L1392.08 32.488L1390.2 39.068ZM1431.58 84V16.32H1443.62V84H1431.58ZM1455.57 84V16.32H1467.6V84H1455.57ZM1479.55 27.976V16.32H1491.58V27.976H1479.55ZM1479.55 84V33.616H1491.58V84H1479.55ZM1515.18 50.16H1503.06C1504.66 38.974 1512.83 32.206 1525.52 32.206C1539.53 32.206 1546.67 40.478 1546.67 52.134V71.686C1546.67 77.89 1547.24 81.368 1548.18 84H1535.68C1535.02 82.308 1534.74 79.864 1534.64 77.138C1530.51 82.966 1524.3 85.41 1518.29 85.41C1508.42 85.41 1501.37 80.522 1501.37 70.84C1501.37 63.978 1505.22 58.808 1512.93 56.27C1519.6 54.014 1526.09 53.45 1534.55 53.356V52.134C1534.55 45.648 1531.45 42.17 1524.77 42.17C1519.04 42.17 1515.94 45.366 1515.18 50.16ZM1513.49 70.182C1513.49 74.036 1516.5 76.48 1521.39 76.48C1528.81 76.48 1534.55 70.464 1534.55 62.944V60.782C1517.44 61.064 1513.49 65.106 1513.49 70.182ZM1559.09 84V33.616H1571.12V40.384C1574.41 34.932 1579.67 32.206 1586.06 32.206C1596.12 32.206 1602.98 38.222 1602.98 50.442V84H1590.95V52.886C1590.95 46.024 1588.04 42.17 1581.93 42.17C1575.25 42.17 1571.12 47.998 1571.12 54.766V84H1559.09ZM1658.63 51.476H1646.6C1645.47 44.896 1641.52 42.17 1636.45 42.17C1629.02 42.17 1625.07 48.092 1625.07 58.902C1625.07 69.524 1629.21 75.446 1636.82 75.446C1641.99 75.446 1645.66 72.626 1646.88 66.892H1659.01C1656.75 79.488 1647.91 85.41 1636.54 85.41C1621.69 85.41 1612.66 75.258 1612.66 58.902C1612.66 41.794 1621.97 32.206 1636.45 32.206C1647.91 32.206 1656.94 38.598 1658.63 51.476ZM1714.24 67.55C1711.52 79.206 1702.49 85.41 1690.46 85.41C1675.23 85.41 1665.93 75.352 1665.93 58.902C1665.93 41.794 1675.33 32.206 1689.99 32.206C1704.75 32.206 1713.87 42.17 1713.87 58.432V61.252H1678.34C1678.9 70.464 1683.13 75.54 1690.46 75.54C1696.1 75.54 1699.96 72.908 1701.55 67.55H1714.24ZM1689.99 42.076C1683.6 42.076 1679.75 46.118 1678.62 53.732H1701.27C1700.14 46.212 1696.29 42.076 1689.99 42.076Z" fill="#262C40"/>
<g clip-path="url(#clip0_130_11786)">
<path d="M2234.01 98.8281L2224.73 82.7123H2165.23L2155.95 98.8281H2109.72L2169.51 1.5625H2221.02L2280.81 98.8281H2234.01ZM2180.35 56.3279H2209.61L2195.05 31.0845L2180.35 56.3279Z" fill="#262C40"/>
<path d="M1999.13 50C1999.13 62.3229 2004.94 67.4221 2038.51 67.4221C2060.18 67.4221 2082.56 63.7394 2099.28 60.7649L2106.07 92.3513C2085.39 97.0255 2060.89 100 2037.09 100C1980.3 100 1960.89 81.4448 1960.89 50C1960.89 18.5552 1980.3 0 2037.09 0C2060.89 0 2085.39 2.97451 2106.07 7.64873L2099.28 39.2351C2082.56 36.2606 2060.18 32.5779 2038.51 32.5779C2004.94 32.5779 1999.13 37.6771 1999.13 50Z" fill="#262C40"/>
<path d="M1922.29 98.8281L1913.01 82.7123H1853.51L1844.23 98.8281H1798L1857.79 1.5625H1909.3L1969.09 98.8281H1922.29ZM1868.64 56.3279H1897.89L1883.33 31.0845L1868.64 56.3279Z" fill="#262C40"/>
</g>
<defs>
<clipPath id="clip0_130_11786">
<rect width="482.812" height="100" fill="white" transform="translate(1798)"/>
</clipPath>
</defs>
</svg>
