<svg width="508" height="376" viewBox="0 0 508 376" fill="none" xmlns="http://www.w3.org/2000/svg">
<path d="M6.298 81V17.08H23.124L39.292 58.346L41.642 66.336L44.086 58.346L60.16 17.08H76.516V81H63.92L64.39 31.368L59.69 46.126L45.966 81H36.848L23.03 45.938L18.424 31.556L18.988 81H6.298ZM135.253 64.55C132.527 76.206 123.503 82.41 111.471 82.41C96.2428 82.41 86.9368 72.352 86.9368 55.902C86.9368 38.794 96.3368 29.206 111.001 29.206C125.759 29.206 134.877 39.17 134.877 55.432V58.252H99.3448C99.9088 67.464 104.139 72.54 111.471 72.54C117.111 72.54 120.965 69.908 122.563 64.55H135.253ZM111.001 39.076C104.609 39.076 100.755 43.118 99.6268 50.732H122.281C121.153 43.212 117.299 39.076 111.001 39.076ZM144.846 81V30.616H156.878V37.102C160.074 31.838 164.962 29.206 170.884 29.206C177.276 29.206 182.258 32.026 184.796 37.76C188.18 32.026 193.538 29.206 200.024 29.206C209.706 29.206 216.286 35.222 216.286 47.442V81H204.254V49.886C204.254 43.024 201.716 39.17 196.358 39.17C190.342 39.17 186.582 44.998 186.582 51.766V81H174.55V49.886C174.55 43.024 172.012 39.17 166.654 39.17C160.638 39.17 156.878 44.998 156.878 51.766V81H144.846ZM240.343 81H228.311V13.32H240.343V36.256C243.539 31.744 248.051 29.206 253.597 29.206C266.663 29.206 274.747 39.264 274.747 55.714C274.747 72.822 266.475 82.41 253.597 82.41C248.051 82.41 243.445 80.06 240.343 75.642V81ZM251.435 39.17C244.197 39.17 240.343 44.998 240.343 55.714C240.343 66.43 244.291 72.446 251.435 72.446C258.579 72.446 262.433 66.524 262.433 55.714C262.433 45.092 258.485 39.17 251.435 39.17ZM330.387 64.55C327.661 76.206 318.637 82.41 306.605 82.41C291.377 82.41 282.071 72.352 282.071 55.902C282.071 38.794 291.471 29.206 306.135 29.206C320.893 29.206 330.011 39.17 330.011 55.432V58.252H294.479C295.043 67.464 299.273 72.54 306.605 72.54C312.245 72.54 316.099 69.908 317.697 64.55H330.387ZM306.135 39.076C299.743 39.076 295.889 43.118 294.761 50.732H317.415C316.287 43.212 312.433 39.076 306.135 39.076ZM339.98 81V30.616H352.012V37.948C355.302 31.932 360.378 29.206 365.83 29.206C367.898 29.206 369.778 29.77 370.718 30.616V41.05C369.12 40.58 367.334 40.392 365.172 40.392C356.054 40.392 352.012 45.844 352.012 54.21V81H339.98ZM418.838 82.41C403.892 82.41 394.68 72.352 394.68 55.902C394.68 38.794 404.174 29.206 418.838 29.206C433.69 29.206 442.902 39.358 442.902 55.902C442.902 72.822 433.408 82.41 418.838 82.41ZM418.838 72.446C426.452 72.446 430.494 66.618 430.494 55.902C430.494 45.186 426.358 39.17 418.838 39.17C411.13 39.17 407.088 45.092 407.088 55.902C407.088 66.524 411.224 72.446 418.838 72.446ZM447.513 39.922V30.616H453.999V29.018C453.999 17.644 459.075 11.91 468.663 11.91C471.765 11.91 474.021 12.568 475.243 13.132V20.934H474.303C467.629 20.934 466.031 23.66 466.031 29.018V30.616H475.243V39.922H466.031V81H453.999V39.922H447.513ZM50.854 175L45.966 161.746H18.706L13.818 175H1.128L25.192 111.08H40.138L64.202 175H50.854ZM30.456 130.068L22.372 151.97H42.3L34.216 130.068L32.336 123.488L30.456 130.068ZM88.7984 175.188C76.0144 175.188 68.1184 165.318 68.1184 149.244C68.1184 132.512 76.2024 123.206 88.7984 123.206C94.8144 123.206 99.5144 125.462 102.616 129.692V124.616H114.648V176.598C114.648 190.228 105.248 197.184 92.7464 197.184C80.3384 197.184 71.3144 191.45 69.5284 179.512H81.6544C82.4064 184.87 86.7304 187.69 92.5584 187.69C98.5744 187.69 102.616 184.776 102.616 176.786V168.326C99.3264 172.838 94.6264 175.188 88.7984 175.188ZM91.5244 165.224C98.7624 165.224 102.616 159.584 102.616 149.244C102.616 138.998 98.5744 133.17 91.5244 133.17C84.3804 133.17 80.5264 138.81 80.5264 149.244C80.5264 159.49 84.3804 165.224 91.5244 165.224ZM172.636 158.55C169.91 170.206 160.886 176.41 148.854 176.41C133.626 176.41 124.32 166.352 124.32 149.902C124.32 132.794 133.72 123.206 148.384 123.206C163.142 123.206 172.26 133.17 172.26 149.432V152.252H136.728C137.292 161.464 141.522 166.54 148.854 166.54C154.494 166.54 158.348 163.908 159.946 158.55H172.636ZM148.384 133.076C141.992 133.076 138.138 137.118 137.01 144.732H159.664C158.536 137.212 154.682 133.076 148.384 133.076ZM182.229 175V124.616H194.261V131.384C197.551 125.932 202.815 123.206 209.207 123.206C219.265 123.206 226.127 129.222 226.127 141.442V175H214.095V143.886C214.095 137.024 211.181 133.17 205.071 133.17C198.397 133.17 194.261 138.998 194.261 145.766V175H182.229ZM239.754 159.302V133.922H233.268V124.616H239.754V113.054H251.786V124.616H262.408V133.922H251.786V158.268C251.786 163.532 253.29 166.352 259.964 166.352H262.22V175.188C260.904 175.846 258.178 176.41 254.888 176.41C244.642 176.41 239.754 170.582 239.754 159.302ZM270.398 118.976V107.32H282.43V118.976H270.398ZM270.398 175V124.616H282.43V175H270.398ZM337.995 142.476H325.963C324.835 135.896 320.887 133.17 315.811 133.17C308.385 133.17 304.437 139.092 304.437 149.902C304.437 160.524 308.573 166.446 316.187 166.446C321.357 166.446 325.023 163.626 326.245 157.892H338.371C336.115 170.488 327.279 176.41 315.905 176.41C301.053 176.41 292.029 166.258 292.029 149.902C292.029 132.794 301.335 123.206 315.811 123.206C327.279 123.206 336.303 129.598 337.995 142.476ZM61.758 224.82H48.504C46.53 217.864 41.172 214.198 34.028 214.198C23.312 214.198 17.108 222.94 17.108 237.134C17.108 251.422 23.218 259.882 34.028 259.882C40.796 259.882 46.154 256.404 48.316 249.73H61.664C58.28 263.078 47.282 270.41 34.216 270.41C15.51 270.41 4.136 257.814 4.136 237.134C4.136 216.548 15.698 203.67 34.404 203.67C47.658 203.67 58.844 210.908 61.758 224.82ZM93.2862 270.41C78.3402 270.41 69.1282 260.352 69.1282 243.902C69.1282 226.794 78.6222 217.206 93.2862 217.206C108.138 217.206 117.35 227.358 117.35 243.902C117.35 260.822 107.856 270.41 93.2862 270.41ZM93.2862 260.446C100.9 260.446 104.942 254.618 104.942 243.902C104.942 233.186 100.806 227.17 93.2862 227.17C85.5782 227.17 81.5362 233.092 81.5362 243.902C81.5362 254.524 85.6722 260.446 93.2862 260.446ZM127.037 269V218.616H139.069V225.102C142.265 219.838 147.153 217.206 153.075 217.206C159.467 217.206 164.449 220.026 166.987 225.76C170.371 220.026 175.729 217.206 182.215 217.206C191.897 217.206 198.477 223.222 198.477 235.442V269H186.445V237.886C186.445 231.024 183.907 227.17 178.549 227.17C172.533 227.17 168.773 232.998 168.773 239.766V269H156.741V237.886C156.741 231.024 154.203 227.17 148.845 227.17C142.829 227.17 139.069 232.998 139.069 239.766V269H127.037ZM210.503 269V218.616H222.535V225.102C225.731 219.838 230.619 217.206 236.541 217.206C242.933 217.206 247.915 220.026 250.453 225.76C253.837 220.026 259.195 217.206 265.681 217.206C275.363 217.206 281.943 223.222 281.943 235.442V269H269.911V237.886C269.911 231.024 267.373 227.17 262.015 227.17C255.999 227.17 252.239 232.998 252.239 239.766V269H240.207V237.886C240.207 231.024 237.669 227.17 232.311 227.17C226.295 227.17 222.535 232.998 222.535 239.766V269H210.503ZM339.934 252.55C337.208 264.206 328.184 270.41 316.152 270.41C300.924 270.41 291.618 260.352 291.618 243.902C291.618 226.794 301.018 217.206 315.682 217.206C330.44 217.206 339.558 227.17 339.558 243.432V246.252H304.026C304.59 255.464 308.82 260.54 316.152 260.54C321.792 260.54 325.646 257.908 327.244 252.55H339.934ZM315.682 227.076C309.29 227.076 305.436 231.118 304.308 238.732H326.962C325.834 231.212 321.98 227.076 315.682 227.076ZM349.527 269V218.616H361.559V225.948C364.849 219.932 369.925 217.206 375.377 217.206C377.445 217.206 379.325 217.77 380.265 218.616V229.05C378.667 228.58 376.881 228.392 374.719 228.392C365.601 228.392 361.559 233.844 361.559 242.21V269H349.527ZM430.251 236.476H418.219C417.091 229.896 413.143 227.17 408.067 227.17C400.641 227.17 396.693 233.092 396.693 243.902C396.693 254.524 400.829 260.446 408.443 260.446C413.613 260.446 417.279 257.626 418.501 251.892H430.627C428.371 264.488 419.535 270.41 408.161 270.41C393.309 270.41 384.285 260.258 384.285 243.902C384.285 226.794 393.591 217.206 408.067 217.206C419.535 217.206 428.559 223.598 430.251 236.476ZM485.865 252.55C483.139 264.206 474.115 270.41 462.083 270.41C446.855 270.41 437.549 260.352 437.549 243.902C437.549 226.794 446.949 217.206 461.613 217.206C476.371 217.206 485.489 227.17 485.489 243.432V246.252H449.957C450.521 255.464 454.751 260.54 462.083 260.54C467.723 260.54 471.577 257.908 473.175 252.55H485.865ZM461.613 227.076C455.221 227.076 451.367 231.118 450.239 238.732H472.893C471.765 231.212 467.911 227.076 461.613 227.076ZM50.854 363L45.966 349.746H18.706L13.818 363H1.128L25.192 299.08H40.138L64.202 363H50.854ZM30.456 318.068L22.372 339.97H42.3L34.216 318.068L32.336 311.488L30.456 318.068ZM71.8454 363V295.32H83.8774V363H71.8454ZM95.8264 363V295.32H107.858V363H95.8264ZM119.807 306.976V295.32H131.839V306.976H119.807ZM119.807 363V312.616H131.839V363H119.807ZM155.444 329.16H143.318C144.916 317.974 153.094 311.206 165.784 311.206C179.79 311.206 186.934 319.478 186.934 331.134V350.686C186.934 356.89 187.498 360.368 188.438 363H175.936C175.278 361.308 174.996 358.864 174.902 356.138C170.766 361.966 164.562 364.41 158.546 364.41C148.676 364.41 141.626 359.522 141.626 349.84C141.626 342.978 145.48 337.808 153.188 335.27C159.862 333.014 166.348 332.45 174.808 332.356V331.134C174.808 324.648 171.706 321.17 165.032 321.17C159.298 321.17 156.196 324.366 155.444 329.16ZM153.752 349.182C153.752 353.036 156.76 355.48 161.648 355.48C169.074 355.48 174.808 349.464 174.808 341.944V339.782C157.7 340.064 153.752 344.106 153.752 349.182ZM199.348 363V312.616H211.38V319.384C214.67 313.932 219.934 311.206 226.326 311.206C236.384 311.206 243.246 317.222 243.246 329.442V363H231.214V331.886C231.214 325.024 228.3 321.17 222.19 321.17C215.516 321.17 211.38 326.998 211.38 333.766V363H199.348ZM298.89 330.476H286.858C285.73 323.896 281.782 321.17 276.706 321.17C269.28 321.17 265.332 327.092 265.332 337.902C265.332 348.524 269.468 354.446 277.082 354.446C282.252 354.446 285.918 351.626 287.14 345.892H299.266C297.01 358.488 288.174 364.41 276.8 364.41C261.948 364.41 252.924 354.258 252.924 337.902C252.924 320.794 262.23 311.206 276.706 311.206C288.174 311.206 297.198 317.598 298.89 330.476ZM354.504 346.55C351.778 358.206 342.754 364.41 330.722 364.41C315.494 364.41 306.188 354.352 306.188 337.902C306.188 320.794 315.588 311.206 330.252 311.206C345.01 311.206 354.128 321.17 354.128 337.432V340.252H318.596C319.16 349.464 323.39 354.54 330.722 354.54C336.362 354.54 340.216 351.908 341.814 346.55H354.504ZM330.252 321.076C323.86 321.076 320.006 325.118 318.878 332.732H341.532C340.404 325.212 336.55 321.076 330.252 321.076Z" fill="#262C40"/>
</svg>
