<svg xmlns="http://www.w3.org/2000/svg" style="isolation:isolate" viewBox="0 0 100 12.143" width="100%">
    <path fill="#f2f2f2" fillRule="evenodd" d="m2.444 1.091-.421 9.424c-.04.905.623 1.092 1.443 1.145v.319c-.58-.026-1.161-.08-1.744-.08-.58 0-1.142.054-1.722.08v-.319c.823-.053 1.403-.24 1.443-1.145l.442-8.918C1.943.639 1.262.506.442.479V.133c.5 0 .982.027 1.483.027.439 0 .859-.027 1.28-.08l3.328 9.397L9.919.08l.38.053c.301 0 .623.027.943.027.482 0 .963-.027 1.443-.027v.346c-.82.027-1.462.187-1.443 1.118l.202 8.918c.04.905.599 1.092 1.462 1.145v.319l-.74-.053c-.442-.027-.863-.053-1.305-.053-.439 0-.881.026-1.323.053l-.721.053v-.319c.844-.053 1.464-.24 1.442-1.145l-.138-9.424-3.769 10.516h-.219L2.444 1.091Zm20.082 3.701v6.282c0 .586-.822.612-1.243.639v.266c.602-.026 1.201-.08 1.802-.08.602 0 1.204.054 1.805.08v-.266c-.681-.053-1.262-.133-1.262-.932v-3.54c0-1.012.16-3.035 1.523-3.141.24-.027.602.106.62.399 0 .16-.08.293-.08.452 0 .346.32.586.642.613.482 0 .7-.426.7-.852 0-.746-.681-1.305-1.421-1.305-1.004 0-1.784.693-2.066 1.624 0-.585-.059-1.171-.12-1.73-.7.186-1.422.373-2.143.399v.266c.721.027 1.243 0 1.243.826Zm10.02-1.544-.463.878c-.461-.426-.98-.719-1.661-.719-2.305 0-3.389 2.29-3.389 4.34 0 2.023.942 4.392 3.306 4.392 1.685 0 2.527-1.411 2.686-2.902h-.681c-.2 1.118-.602 2.343-1.962 2.343-1.906 0-2.106-2.423-2.106-3.833 0-1.331.322-3.914 2.125-3.914 1.261 0 1.863 1.092 2.084 2.157h.341V3.248h-.28Zm7.433 5.963h.703c-.261 1.783-1.302 2.928-3.147 2.928-2.364 0-3.306-2.21-3.306-4.259 0-2.05.902-4.473 3.306-4.473 2.305 0 3.125 2.077 3.107 4.073h-5.333c.043 1.651.261 4.1 2.426 4.1 1.384 0 2.065-1.145 2.244-2.369Zm-.421-2.343v-.239c-.12-1.252-.519-2.769-2.063-2.769-1.464 0-2.063 1.784-2.124 3.008h4.187Zm9.762 4.579v.239c-.722.107-1.403.187-2.106.4-.101-.506-.181-1.012-.2-1.544-.42.931-1.221 1.544-2.265 1.544-2.244 0-3.085-2.476-3.085-4.339 0-1.864.862-4.286 3.085-4.286 1.084 0 1.704.665 2.204 1.57V1.597c0-.825-.479-.931-1.24-.931v-.24l.218-.053c.721-.08 1.424-.16 2.124-.373v10.222c0 .932.323 1.225 1.265 1.225ZM46.953 7.8c0-1.411-.239-3.86-2.124-3.86-1.802 0-1.983 2.449-1.983 3.753 0 1.331.159 3.914 2.044 3.914 1.904 0 2.063-2.423 2.063-3.807Zm9.041 1.411h.7c-.16 1.783-1.363 2.928-3.147 2.928-2.345 0-3.327-2.21-3.327-4.259 0-2.05.923-4.473 3.327-4.473 2.324 0 3.125 2.077 3.125 4.073h-5.329c-.021 1.651.28 4.1 2.404 4.1 1.363 0 2.106-1.145 2.247-2.369Zm-.402-2.343c-.12-1.304-.442-3.008-2.066-3.008-1.462 0-1.962 1.65-2.122 2.848l-.021.16h4.209Zm2.545 5.271.399-.745c.583.479 1.344.692 2.084.692 1.424 0 2.787-.932 2.787-2.476 0-1.171-.801-1.757-1.823-2.156l-.801-.32c-.722-.266-1.885-.665-1.885-1.624 0-.958.761-1.623 1.722-1.623 1.243 0 1.744 1.011 1.866 2.103h.341V3.301h-.282l-.24.665c-.521-.319-1.102-.505-1.725-.505-1.341 0-2.585.878-2.585 2.289 0 2.822 4.491 1.997 4.491 4.126 0 1.038-.923 1.731-1.906 1.731-1.461 0-2.103-1.092-2.403-2.37l-.363.027.022 2.875h.301Zm6.032-4.738h3.205v-.56h-3.205v.56Zm18.615 1.81h.703c-.159 1.73-1.384 3.008-3.165 2.928-2.326-.133-3.309-2.13-3.309-4.259 0-2.05.924-4.473 3.309-4.473 2.324 0 3.144 2.077 3.144 4.1h-5.351c-.018 1.624.301 4.073 2.407 4.073 1.403 0 2.063-1.145 2.262-2.369Zm-.42-2.343c-.019-1.304-.479-3.008-2.063-3.008-1.443 0-1.965 1.677-2.124 2.848l-.022.16h4.209Zm3.168-2.05v5.99c0 .799-.583.852-1.283.905v.293c.62-.053 1.222-.107 1.823-.107.602 0 1.203.054 1.824.107v-.293c-.682-.053-1.283-.133-1.283-.905V6.575c0-1.251.641-2.369 2.065-2.369 1.363 0 1.622 1.198 1.622 2.316v4.552c0 .612-.842.612-1.281.639v.293c.599-.053 1.201-.107 1.824-.107.62 0 1.221.054 1.842.107v-.293c-.7-.053-1.281-.106-1.281-.905V6.469c0-1.571-.782-3.008-2.566-3.008-1.001 0-1.765.532-2.305 1.357v-.213c-.019-.479-.059-.905-.12-1.357-.682.266-1.403.426-2.124.532v.266c.702 0 1.243-.026 1.243.772Zm13.888 7.135.42-2.396h-.282c-.399 1.118-.881 1.996-2.164 1.996h-2.383L100 3.594h-5.691l-.381 2.183h.301c.38-1.012.782-1.757 1.964-1.757h2.284l-4.97 7.933h5.913ZM19.699 9.211h.703c-.162 1.783-1.363 2.928-3.147 2.928-2.366 0-3.306-2.183-3.306-4.259 0-2.05.9-4.473 3.306-4.473 2.324 0 3.126 2.077 3.126 4.073h-5.33c-.021 1.651.28 4.1 2.404 4.1 1.342 0 2.143-1.145 2.244-2.369ZM19.3 6.868c-.083-1.304-.463-3.008-2.084-3.008-1.526 0-1.965 1.784-2.125 3.008H19.3Zm56.545 1.704c0 2.129-1.486 3.381-4.06 3.381h-4.323v-.346c1.187-.08 1.448-.267 1.448-1.172V1.65c0-.878-.258-1.091-1.448-1.144V.16h4.448c2.148 0 3.362 1.038 3.362 2.848 0 1.251-.591 2.103-1.877 2.662 1.513.266 2.45 1.384 2.45 2.902Zm-4.449-3.035c1.802 0 2.601-.772 2.601-2.476 0-1.677-.697-2.422-2.26-2.422h-1.656v4.898h1.315Zm-1.315 4.925c0 .825.187.985 1.203.985h.653c1.64 0 2.63-1.065 2.63-2.795 0-1.784-.852-2.636-2.638-2.636h-1.848v4.446Z" />
</svg>