<?xml version="1.0" encoding="UTF-8"?>
<svg preserveAspectRatio="xMidYMid" viewBox="0 0 256 256" xmlns="http://www.w3.org/2000/svg" fill="currentColor" height="100%">
    <path d="M0 0v256h256V0H0zm73.273 38.4h55.857c1.241 0 2.369.713 2.898 1.826l63.043 132.574h16.121c1.774 0 3.207 1.433 3.207 3.199v38.4c0 1.766-1.433 3.199-3.207 3.199h-44.709c-1.238 0-2.36-.711-2.893-1.824L100.254 83.199H73.236c-.853 0-1.668-.336-2.268-.937a3.18 3.18 0 0 1-.939-2.266l.035-38.398a3.21 3.21 0 0 1 3.209-3.197zm3.203 6.4l-.029 32h25.83c1.238 0 2.367.709 2.896 1.822l63.334 132.576h39.477v-32h-14.943a3.21 3.21 0 0 1-2.896-1.826l-21.682-45.598-41.359-86.975H76.477zm17.33 63.965h.01c1.225 0 2.348.701 2.887 1.805l23.484 48.357c.427.87.429 1.885.016 2.762l-25.648 54.08a3.21 3.21 0 0 1-2.9 1.83H44.807c-1.1 0-2.127-.562-2.711-1.49a3.19 3.19 0 0 1-.182-3.088L90.92 110.586c.529-1.11 1.652-1.817 2.887-1.82zm.029 10.582l-43.945 91.852h39.734l24.123-50.859-19.912-40.992z" />
</svg>