<svg xmlns="http://www.w3.org/2000/svg" preserveAspectRatio="xMidYMid" viewBox="0 0 255.55 282.23" fill="currentColor" height="100%">
    <path
        d="M235.5 190.198c-1.933 11.129-8.806 20.851-18.859 26.673-9.371 5.427-20.6 7.047-32.489 8.762-6.369.918-12.955 1.868-19.389 3.455-17.012 4.195-33.49 12.38-49.425 20.295-31.89 15.84-59.43 29.518-85.398 11.521-19.022-13.184-18.143-37.576-15.927-50.942 2.054-12.384 7.606-23.788 12.976-34.818l2.722-5.634c2.661 1.063 5.492 1.789 8.443 2.119-5.466 18.039 3.13 37.653 21.172 46.921l2.469 1.268 2.615-.931c14.263-5.08 27.405-13.231 39.063-24.229 7.535-7.109 14.014-14.974 19.339-23.377a32.8 32.8 0 0 0 4.892.367c16.559 0 30.271-12.379 32.393-28.367a290.71 290.71 0 0 1 20.794-.003c2.121 15.989 15.834 28.37 32.393 28.37 6.924 0 13.346-2.17 18.637-5.856 3.673 7.519 5.044 15.979 3.581 24.407zM41.799 119.295c10.948 0 19.854 8.907 19.854 19.854 0 3.932-1.154 7.599-3.135 10.687-3.301 5.147-8.909 8.675-15.356 9.115-.451.031-.905.052-1.364.052-2.439 0-4.777-.445-6.938-1.253-4.371-1.636-8.014-4.772-10.305-8.777-1.659-2.899-2.612-6.252-2.612-9.824 0-10.948 8.907-19.854 19.854-19.854zm66.049 19.666c0-9.947 7.353-18.206 16.908-19.634.962-.144 1.946-.22 2.947-.22 6.365 0 12.031 3.016 15.666 7.688a19.88 19.88 0 0 1 2.317 3.765 19.73 19.73 0 0 1 1.871 8.402c0 1.587-.192 3.13-.546 4.611-1.935 8.1-8.842 14.291-17.305 15.143-.658.066-1.327.101-2.003.101-3.964 0-7.657-1.172-10.76-3.182-5.466-3.541-9.094-9.69-9.094-16.673zm82.865-23.609c-4.253 4.07-7.416 9.269-8.991 15.116-7.352-.276-15.148-.276-22.458 0-1.679-6.232-5.162-11.73-9.846-15.906l20.544-41.542 20.751 42.332zM102.216 12.833h135.437l-31.988 94.345a32.48 32.48 0 0 0-4.052 1.256l-31.6-64.463-31.689 64.078c-1.37-.472-2.781-.851-4.226-1.139l-31.881-94.076zm130.921 126.128a19.8 19.8 0 0 1-.845 5.727c-1.304 4.317-4.04 8.016-7.652 10.545a19.74 19.74 0 0 1-11.357 3.583c-9.167 0-16.9-6.247-19.174-14.707-.441-1.643-.681-3.367-.681-5.147a19.74 19.74 0 0 1 1.539-7.659c.51-1.215 1.147-2.364 1.877-3.443 3.573-5.273 9.603-8.752 16.439-8.752a19.97 19.97 0 0 1 1.857.09c10.08.939 17.997 9.443 17.997 19.765zm12.832 0c0-15.958-11.498-29.273-26.641-32.117L255.553 0H84.318l36.281 107.061c-14.618 3.253-25.583 16.316-25.583 31.9 0 11.702 6.184 21.981 15.452 27.756-4.458 6.642-9.745 12.892-15.802 18.607-9.608 9.064-20.311 15.937-31.851 20.46-11.623-7.301-16.536-21.069-11.433-33.064l.4-.94.75-1.764c12.766-4.453 21.953-16.603 21.953-30.868 0-18.024-14.663-32.687-32.687-32.687S9.112 121.126 9.112 139.15c0 9.097 3.739 17.335 9.758 23.267l-3.418 7.11c-5.502 11.302-11.739 24.111-14.097 38.336-4.684 28.25 2.872 50.832 21.276 63.588 11.168 7.74 22.509 10.783 33.923 10.783 21.491 0 43.231-10.797 64.493-21.358 15.313-7.606 31.148-15.471 46.789-19.328 5.819-1.435 11.808-2.299 18.148-3.213 12.572-1.814 25.573-3.689 37.089-10.358 13.349-7.732 22.486-20.701 25.07-35.582 2.218-12.775-.451-25.57-6.961-36.421 3.035-4.959 4.787-10.784 4.787-17.011z" />
</svg>