<?xml version="1.0" encoding="UTF-8"?>
<svg preserveAspectRatio="xMidYMid" viewBox="0 0 256 255" xmlns="http://www.w3.org/2000/svg" fill="currentColor" height="100%">
    <path d="m126.92 0.072c-64.832 0-60.784 28.115-60.784 28.115l0.072 29.127h61.868v8.745h-86.441s-41.486-4.704-41.486 60.712 36.21 63.097 36.21 63.097h21.61v-30.356s-1.165-36.21 35.632-36.21h61.362s34.475 0.557 34.475-33.319v-56.013s5.234-33.897-62.518-33.897zm-34.114 19.587a11.131 11.131 0 1 1 0 22.261 11.131 11.131 0 1 1 0-22.261zm35.955 234.47c64.832 0 60.784-28.115 60.784-28.115l-0.072-29.127h-61.868v-8.745h86.442s41.486 4.705 41.486-60.711-36.21-63.097-36.21-63.097h-21.61v30.356s1.165 36.21-35.632 36.21h-61.362s-34.475-0.557-34.475 33.319v56.014s-5.234 33.897 62.518 33.897zm34.114-19.587a11.13 11.13 0 1 1 0-22.261 11.13 11.13 0 1 1 0 22.261z" />
</svg>