<?xml version="1.0" encoding="UTF-8"?>
<svg preserveAspectRatio="xMidYMid" viewBox="0 0 256 256" xmlns="http://www.w3.org/2000/svg" fill="currentColor" height="100%">
    <path d="M38.944 35.879c50.58-48.999 131.454-47.682 180.453 3.161 5.532-7.376 10.274-15.543 13.699-23.973 16.07 48.999 25.817 90.095 22.129 121.971-1.844 26.87-12.381 52.687-29.768 73.235-45.311 53.741-125.922 60.59-179.663 15.279h0l-1.028-.915-.055-.036a11.67 11.67 0 0 1-.498-.366c-.491-.382-.936-.797-1.336-1.24l-.144-.164-1.681-1.493c-1.639-1.405-3.278-2.81-4.732-4.4l-.536-.605c-48.999-50.58-47.418-131.454 3.161-180.453zm18.967 171.497c-4.742-3.688-11.591-3.161-15.279 1.581-3.243 4.17-3.227 9.969.048 13.815l.052.06 2.033 1.807.199.136c4.605 3.028 10.8 2.402 14.334-1.878l.194-.242c3.688-4.742 2.898-11.591-1.581-15.279zM231.779 28.239c-13.172 27.661-45.838 48.736-74.025 55.321-26.607 6.322-49.789 1.054-74.289 10.537-55.848 21.338-54.795 87.724-24.236 102.74h0l1.844 1.054s22.073-4.389 43.901-10.185l1.87-.5c8.718-2.35 17.295-4.911 24.303-7.492 36.354-13.435 76.396-46.628 89.568-85.09-6.849 40.042-41.359 78.767-75.869 96.417-18.44 9.484-32.666 11.591-62.961 22.129-3.688 1.317-6.586 2.634-6.586 2.634l1.108-.149.736-.095h0l.732-.092c6.691-.829 12.703-1.244 12.703-1.244 42.94-2.107 110.38 12.118 141.728-29.768 32.139-42.677 14.226-111.697-.527-156.217z" />
    <path d="M57.911 207.376c4.478 3.688 5.269 10.537 1.581 15.279s-10.537 5.269-15.279 1.581-5.269-10.537-1.581-15.279 10.537-5.269 15.279-1.581zM231.779 28.239c14.752 44.521 32.666 113.541.527 156.217-31.349 41.886-98.788 27.661-141.728 29.768 0 0-6.012.415-12.703 1.244l-.732.092-1.844.245s2.898-1.317 6.586-2.634c30.295-10.537 44.521-12.645 62.961-22.129 34.51-17.65 69.02-56.375 75.869-96.417-13.172 38.462-53.214 71.654-89.568 85.09-25.026 9.22-70.074 18.177-70.074 18.177l-1.844-1.054c-30.559-15.016-31.612-81.402 24.236-102.74 24.5-9.484 47.682-4.215 74.289-10.537 28.188-6.586 60.854-27.661 74.025-55.321z" fill="transparent" />
</svg>